<svg version="1.1" xmlns="http://www.w3.org/2000/svg">
<path d="m240 502-.74-.79v-6.2l-5.8-.71-.63-13h-6l-.79-24-1.6-1.7-24-1.2-.64-4.8-4.6-1.3-19-.03v-6.7h-25l-.17-3.9-1.1 2.8h-4v-3.4l5.8-.26-6.3-1.7-8.1-.26.97 5.4-12 1.5-.029 12-1.3 5-3.4-.034 3.1-2.2-3.4-.034-1.6 7.3.4 3.9h-5.9l-.26-2.2-.26-17-5.8-.71-1-12-5.8-.71v-20h-6.3v-13h-6.3v-6.7h-6.3v-6.7h-6.3v-9.2l-3.6 1.5 3.6-4.3-3-1.2-2.4 2.5v-2.7h-7.3v6.7h-6.3v5.4l-12 1.5-.65 5.9-5.2.016-1 6.7-12 .67v6.9l-8.9-1.5-2.6-.25v-1.7l4.7-1.7-5.2-1.4-.66-7.2h6.3l.66-6.1 12-.67v-6.6h6.3v-6.7h13v-6.7h6.3v-6.7h6.4l-.61-20-4.6-.7-1.4-13h-5.9l-.66-6.1-37-.61v-6.7h6.2l.66-6 30-.82 6.3-.49.57-40-12-.67-.66-6.1h-6.2v-6.7h-13v-6.7h-6.4l-.98-2.8 1.6-10 5.7-.71v6.9h11l6.5 1.4-.46 4.8 7.9.69v6.6h13l-.083-6.1 5.5-.68 1.4-12h5l.62-15 4.9-.74-1-4.1 3.1-1.3h5.1v-15h5.8l.42-10 1.2-2.1h5.1l.37-8.4.00067-1.9.00066-1.9 12-1.5.62-13 6.8-.7v-5.4h5.2v-7.8h6.3v-6.7h6.3v-6.7h6.3v-6.7h6.3v-6.7h6.2l.66-6.1 5.8-.71v-6.6l7.9-.031 4.5-1.3.19-10 1.2-2.2h11l.26-6.7.52-4.5.26-2.3 2.6.36 8.9-.26v-6.7h6.2l.66-6.1 6.3-.76 1.5-2.6.032 2.6 3.8-1.1-.15-4.9 6.8-.7v-6.6h12l.63-13 13-.67-.59-6 12-1.1.032-5.6 13-.67v-6.6h6.5l-1-5.6h5.7l1.3 8.4.012 49 .011 49 19-.22 5.2-1.8-4.7-.22v-2.4l2 1.3 4.3-3.9v-6.2h18v-6.7h6.3v-5.5l1.8-1.2 16-.33-1-1.8 2.6-1.1-2.8-2.1 3.5-1.4h5.1v-6.7h13v-6.6l12-.67.66-6.1h12v-6.7h6.3v-5.3l9.7-1.4h9.2v-6.7h6.3v-6.7h12l.66-6.1 2.6-.28 3-.28.66-6.1 18-.65v-5.5h4l3.3-1.4v-5.3h5.5l-.98 5.5 6.5.68.58 33h6.2v21l1.3 7.2 3.7-1 1.3 10-.028 33-1.3 5h-3.7l-1.1 3.1-.18 35-1.1 1.2-4.6.067-.3 22-.3 22-.91 2.8h-5.2l-.63 13-5.8.71v27h-6.2l-.66 7.3-4.7-.27v4l2.6 1.1-3.6.18-.62 14-5.8.71v6.6h-6.3v20l54-.14 8.9.07v5.4l-1.2 3.2-5.1-1v2.4l2.3 1.5-2.8 1.9-50 .034-1.2 2-4.2-1.2-.26 1.9-1.3 23-5.9.72.65 7.1 4.5-.48v5.6l.81.86 13 .72-.66 6 7 .71.66 6.1 18 .64v19l-5.2.023-.66-6.1-18-.64-.64-5.9-11-1.5.2-1.5-.25-4.1-17 .6-2.1.74-.63 10-1.2 2-5-1-.36 9.2-.19 4.5-5.9.72.65 7.1 4.7.71v5.3l6.8.7.66 6.1h6.2v6.4l11 1.5 1.4 12 12 .66.61 20h-6.4v-6.7l-6.8-.22-5.2-.34-.65-6-5.6-.69-.66-6.1h-6.2v-6.7h-6.3v-6.6l-12-.67-1-12-12-.67v6.8h-6.3v6.6l-12 .67-.66 6.1h-6.2v6.7h-19v5.4l-11 1.3-7.3.56-.04 5.6-76 .59v13h-6.2l-.63 13-5.7.7-.63 13-5.6.69-.65 7.1-4.3.65zm69-104v-17h-6.3v-6.7h-6.3v13h-6.3v27h19zm.21-43 .31-6.4 5.9-.72-.65-7.1-4.7.18v-6.2l-6.8-.7-.31-6.4-.31-6.4-5.7-.7-.65-6-5.6-.69v-4.5l2.1-1.6 9.9-.034.63-13 12-.63.66-6.1 5.8-.71v-6.6h6.4l-.31-6.4-.31-6.4-12-1.1-.032-5.6-14-.67 1 5.6-12 1.5-.64 5.9-9.4.63-2.6 1v5.7h-6.3v-6.7h-6.3v-13h-6.3v-6.7h-26v6.4l-5.2-1.1v15h5.1l.66 6.1 6.3 1.1.63 13h6.2v13l-7.9.26-2.1.52-2.6.34v5.6h-6.3v6.4l-12 1.5-.33 25 12 .67.66 6.1h4.8l6.4-1.4.64-4.8 11-1.4 2-1.3.34-9.2 1.2-2 16 .03 4.9 1.4-2.1 1.4-.69 3.2 5.2.14.65 8.3 4.6-.51 1.9 13h25zm-189-10 .33-3.1 5.6-.69.65-6 12-.67.12-12 1.5-7.8 4.2.022 1.8-13h2.9v2.2h-2.2l2.7 3.1 1.3-5.9.12-20 .12-20-5.8-.71.083-6.1h-11l-2.5 2.7v4h-6.2l-.66 6.1-18 1.1-.66 6.1h-6l-.66 6.1-18 1.1-.66 6.1h-6.2v34h6.3v7.8h5.1l1.4 12 11 1.5v5.4h20l.33-3.1zm333-101v-10h6.1l1.4-12h5.1l.011-9.8.012-9.8 1.3-8.3 4.5-.68 1-19 5.8-.71v-94l-5.8-.71-.62-13-9.9-1.4-21 1.5-.64 6.9-5.2.03-.65 6-12 .67-.66 6.1h-6.2v6.7h-13v12l-13 1.6v6.5h-6.3v5.6l-3.7.34-3.1.22-.66 7.3h-5l-.66 6.1-5.8.71v6.6h-6.3v13l5.8.71.65 6 12 .67.65 6 5.6.69.64 5.9 11 1.5v5.4l6.8.56-.082 6.1 3.5 1.2 2.8-.64.65 6 5.6.69.67 7.5 4.9-1 1.4 13 5.6-.69 1 13 12 2.6-4.7.25v3.2l4.7.71.57 18 .94 2.8h12z" fill="#fff"/>
</svg>
