<svg version="1.1" viewBox="0 0 210 297" xmlns="http://www.w3.org/2000/svg">
<path d="m115 237v-2.6h2.6l.065-1.6c.036-.88.11-1.8.16-2 .055-.24.12-.67.15-.96l.049-.54h2.1l.25-7.5 2.4-.27v-2.5l13-.24.27-2.4h7.7v-2.5l6.1-.15c3.4-.083 6.9-.053 7.8.066l1.7.22.44 2.1h1.7l.26 5.4h2.5v2.6h2.5l.26-5.3 2.1-.012.26-4.9h2.5l.24-10 2.4-.27v-2.5h2.5l.59-4.7h2l.27-2.8 2.4-.27v-2.5h2.5l.27-2.4 1.9-.27.28 2.4 2.6.44.27 2.3 4.9.26.27 2.4h2.5v2.6h5.1v2.6h5.2l-.28-7.5-5.1-.43-.012-2.1-4.7-.43-.27-2.3-4.9-.26-.43-4.7-4.9-.26v-5.1h2.6v-5.1h2.1l.27-2.4 13-.24.27-2.3h2.1v-5.1l-15-.23-.26-4.9-2.1-.5v-8.1l1.5.12.51-2 2-.05c1.1-.027 2.3-.075 2.6-.11l.64-.058.43-4.7.64-.058c.35-.032 2-.08 3.7-.11l3.1-.05v-2.6h2.6v-2.6h-2.6v-2.6l-4.9.26-.27 2.4h-5l-.27 2.4-2.4.27v2.5h-5.1l-.054-1.9c-.03-1.1-.078-2.2-.11-2.5l-.054-.54-2.4-.27v-2.5l-2.4-.27-.25-7.5h-2.5l-.27-2.4-2.4-.27v-5.1h-2.6v-2.6h-2.6v-5.1l-4.9-.26-.26-4.9h-2.5v-2.6h-2.6v-2.5l-2.4-.27-.27-2.3-2.3-.27-.27-2.4h-2.5v-2.5l-2.4-.27-.27-2.3-2.3-.27-.27-2.4h-2.5v-2.6h-2.6v-2.6h-2.6v-2.5l-2.2-.26c-1.2-.14-2.3-.34-2.4-.43-.093-.093-.29-1.2-.43-2.4l-.26-2.2h-5l-.27-2.8-2.4-.27v-2.1h-2.6v-2.6h-1c-.56 0-1.6-.12-2.4-.27l-1.3-.27v-2h-2.9l-.27-2.4-2.4-.27v-2.5h-5.1v-2.6h-2.6v-2.6h-5.1l-.27-2.4-2.1-.012-.27-2.8h-5.1l-.046 20c-.025 11-.073 20-.11 20l-.062.86-7.5.25v-2.6h-2.6v-2.6h-5.1l-.27-2.4-4.9-.26v-2.5h-5.1v-2.6l-1.6-.073c-.88-.04-2-.091-2.5-.11l-.86-.04-.27-2.3h-5.1v-2.6h-2.6v-2.5l-7.5-.25-.44-2.5-2.1-.51v-1.7l-5.4-.26v-2.5h-2.5l-.27-2.4-7.3-.43-.27-2.4h-2.5v-2.5l-5.4-.26.26-1.9-5.2-.59v-2.5l-2.8.27-.28 2.4-1.7-.45-.18.5c-.097.28-.23 2.6-.3 5.2l-.12 4.7-2.3.27-.25 7.4-2.1.5-.11 15-.11 15 2.4.27.43 10 1.7-.01.27 1.1c.15.59.29 4 .32 7.6l.051 6.5 2.4.27.058.64c.032.35.08 1.5.11 2.5l.05 1.8h2l.26.96c.14.53.26 2.8.26 5.1l.006 4.2h2.6v5.1h2.6v5.1h2.6v5.1l.75.051c.41.028.87.035 1 .015.15-.02.37.34.49.79l.22.83-1.6 1.9-.051-.6c-.028-.33-.17-.023-.33.68l-.27 1.3h-16v-1.7l-1.1-.27c-.59-.15-2.3-.29-3.7-.32l-2.7-.051v7.7h21l.27 2.4 4.9.26.14 4.2c.074 2.3.077 5.2.006 6.4l-.13 2.3h-5.1v2.6l-1.4.043c-1.9.057-3.1.49-3.2 1.1l-.11.54 1.9.1-1.3.33c-.71.18-2.4.35-3.7.38l-2.5.051v7.8l4.9-.26.012-2.1 5.3-.26v-2.5h5.1v-2.6h5.1v2.6h2.6v2.6h2.6v5.1l2.4.27v2.1l-2.4.27v2.5h-2.5l-.27 2.4-2.4.27v2.5h-5.1l-.26 4.9-4.9.26v2.5h-2.6v4.7l.54.2c.63.23 3.3.36 5.6.27l1.6-.066v-2.6h2.6v-2.6h2.6v-2.5l4.9-.26.26-4.9h5.1v-2.5l4.4-.59.33.34c.18.19.39.83.47 1.4l.14 1.1 4.9.26.27 2.3 4.7.43.27 2.4h5l.27 2.4 1.7.11c.94.059 2.5.21 3.5.34l1.8.24.27 1.9 31 .22.27 2.3 2.3.27.26 4.9 2.4.27v2.5h2.6v5.5l2.1-.38.58 5.2h2.5zm-28-39v-5.1l2.4-.27.26-4.9h2.5v2.3c0 1.3.12 2.9.27 3.6l.27 1.3h2v5.6l-.54.065c-.29.036-.82.084-1.2.11l-.64.042-.042.64c-.023.35-.072.88-.11 1.2l-.065.54h-5.1zm2.2-17c-.075-.53-.32-.99-.54-1-.22-.03-.64-.078-.93-.11l-.54-.054-.25-7.9h2.6v-5.1h2.6v-2.6h2.6v-2.6h-2.9l-.57-1.5-.76 1.2-.3-.3c-.3-.3-.45-1.3-.55-3.4l-.055-1.2h-5.1v-2.6h-2.6v-7.7h2.6v-2.6h5.1v2.6h5.1v2.6h2.6v2.7l3.5-.24c1.9-.13 3.5-.32 3.7-.43.11-.11.31-1.2.45-2.4l.26-2.2 2.2-.26.43-4.7 10-.24v2.6h2.6l-.29 4.9-2.3-.17v3h-2.6v5.1h-3l.25 2.4-.96.14c-.53.075-.99.32-1 .54-.03.22-.078.74-.11 1.1l-.054.75 4.9.26v2.5l2.8.27.28 2 1.6-.43v.78h3v2.6h2.6v7.7h-13v-2.6h-2.6v-2.6l-10 .24-.26 4.9h-2.5v2.5l-2.4.27-.27 2.4-5.3-.25zm76-4.4-.8-.043 1.6-1.2-.69-.69-.8 1.3-.012-1.5h-3v-2.6h-2.5l-.27-2.4-2.3-.27-.25-5.3-2.1-.32 1.7-.69-2.1-.073 1.3-.83-1-.012-.26-5.4-2.4-.27v-10h2.6v-5.1h2.6v2.6h5.1v2.6h5.1l.27 2.4 4.7.43.27 2.4h5l.27 2.4 4.9.26v10l-2.4.27-.43 4.7-2.4.27v2.5h-2.1l-.049.54c-.027.29-.075.83-.11 1.2l-.058.64-2.8.27v2.6l-2.9-.23c-1.6-.13-3.3-.25-3.7-.27zm-137-42v-3.9h-2.6v-1c0-.56-.12-1.6-.26-2.3l-.26-1.3-1.8-.26-.24-11h-2.5l-.12-4-.12-4-1.8-.26-.26-1.3c-.34-1.7-.34-28 0-30l.26-1.3 1.8-.26.72-5.4h9.7l.27 2.4 2.4.27v2.5h5.1v2.5l3.6.48.34.56c.19.31.25.65.13.77-.12.12-.39-.069-.61-.42l-.4-.63-.012 1.4 1.3.27c.74.15 1.8.27 2.3.27h.99l.27 2.4 2.4.27v2.5h5.1v1c0 .57.11 1.3.24 1.7l.24.63 1.7-.43v1.3l-1.9.33 4.9.69v2.5h2.6v2.6h2.5l.26 4.9 2.4.27v2.5h-2.6v2.6h-5.1v2.6h-2.6v.64c0 .35.014.78.032.95.052.5-1.4.92-3.4.95l-1.8.03v2.6h-2.6v2.6h-2.6v2.6h-2.6v2.6h-2.6v2.6h-2.6v5.1h-2.6v2.6h-2.6v7.7h-5.1zm95-70c0-.24-.19-.43-.43-.43s-.43.19-.43.43c0 .24.19.43.43.43s.43-.19.43-.43z" fill="#fff" stroke-width=".43"/>
</svg>
