<?xml version="1.0" encoding="UTF-8"?>
<svg version="1.1" xmlns="http://www.w3.org/2000/svg" width="1024" height="1024">
<path d="M0 0 C0.67360565 0.04413025 1.3472113 0.0882605 2.04122925 0.13372803 C11.22395248 0.73688624 20.35325223 1.51382245 29.47265625 2.7578125 C32.64461757 3.1943336 32.64461757 3.1943336 35.68359375 3.0546875 C38.55994097 3.12201422 40.85652681 3.66638995 43.58837891 4.51855469 C46.1358293 5.25452431 48.69859113 5.8032684 51.29296875 6.3515625 C63.69270995 8.98120695 75.94026519 11.8881859 88.125 15.375 C89.91877075 15.88667725 89.91877075 15.88667725 91.7487793 16.40869141 C96.26400816 17.72341308 100.50460184 18.96464919 104.6875 21.125 C106.02518978 21.63902731 107.37213432 22.12950849 108.7265625 22.59765625 C109.47164062 22.85740234 110.21671875 23.11714844 110.984375 23.38476562 C111.75265625 23.64966797 112.5209375 23.91457031 113.3125 24.1875 C114.84675929 24.71888382 116.38063246 25.25138416 117.9140625 25.78515625 C118.59033691 26.01855713 119.26661133 26.25195801 119.96337891 26.49243164 C121.6875 27.125 121.6875 27.125 123.6875 28.125 C125.6834722 28.80363055 127.68318551 29.47141919 129.6875 30.125 C129.6875 30.785 129.6875 31.445 129.6875 32.125 C130.53054688 32.38410156 131.37359375 32.64320313 132.2421875 32.91015625 C135.91598173 34.20556442 139.34635223 35.80308761 142.8125 37.5625 C143.84793945 38.0874707 143.84793945 38.0874707 144.90429688 38.62304688 C147.17022412 39.78118747 149.42960004 40.95129199 151.6875 42.125 C152.44901367 42.5183252 153.21052734 42.91165039 153.99511719 43.31689453 C173.36230806 53.39639834 191.44606787 65.56165838 208.73828125 78.8671875 C211.3114034 80.83707439 213.78557192 82.67403596 216.6875 84.125 C217.28643066 84.88731934 217.88536133 85.64963867 218.50244141 86.43505859 C220.69990604 89.14027259 222.89824419 91.03692366 225.6484375 93.1640625 C231.72082067 98.03850625 237.22335181 103.35669113 242.70410156 108.88085938 C244.31097307 110.49846287 245.92828494 112.10506913 247.546875 113.7109375 C254.03822158 120.1935544 259.9999058 126.91409719 265.6875 134.125 C266.71229931 135.37968672 267.7393362 136.63255231 268.76953125 137.8828125 C279.4000871 150.94114718 289.20829049 164.56287931 297.6875 179.125 C298.23905762 180.06786865 298.23905762 180.06786865 298.80175781 181.02978516 C316.03785765 210.68074827 328.78954798 242.02688548 337.6875 275.125 C338.06430908 276.52298828 338.06430908 276.52298828 338.44873047 277.94921875 C344.32811471 300.30801519 347.33094502 324.01449974 347.6875 347.125 C347.70796387 348.25921387 347.72842773 349.39342773 347.74951172 350.56201172 C349.24987703 447.2921754 320.26091106 537.63284397 257.6875 612.125 C256.45773437 613.63320312 256.45773437 613.63320312 255.203125 615.171875 C248.84873787 622.87099033 241.99215786 630.00170339 234.9375 637.0625 C234.05030273 637.95050293 233.16310547 638.83850586 232.24902344 639.75341797 C218.2562116 653.628357 202.76052292 665.75544216 186.6875 677.125 C186.11660645 677.52895996 185.54571289 677.93291992 184.95751953 678.34912109 C143.78065675 707.2047902 96.01184907 727.46971613 46.6875 737.125 C45.75244629 737.30901367 44.81739258 737.49302734 43.85400391 737.68261719 C40.94738537 738.24405067 38.03769962 738.78356956 35.125 739.3125 C33.87033936 739.5451355 33.87033936 739.5451355 32.59033203 739.7824707 C15.05756493 742.81019775 -2.6169297 743.53710577 -20.375 743.5 C-21.93096893 743.49868576 -21.93096893 743.49868576 -23.51837158 743.49734497 C-93.7706881 743.30341868 -172.33823882 724.73447021 -229.16259766 681.72387695 C-231.22235488 680.1920407 -233.31031879 678.71928226 -235.42578125 677.265625 C-243.99445378 671.37686651 -251.77872888 665.30952346 -259.3125 658.125 C-260.74213571 656.84532608 -262.17900973 655.57366444 -263.625 654.3125 C-264.25019531 653.7659375 -264.87539063 653.219375 -265.51953125 652.65625 C-267.25717493 651.17224929 -269.02990498 649.74190021 -270.8125 648.3125 C-271.6375 647.590625 -272.4625 646.86875 -273.3125 646.125 C-273.3125 645.465 -273.3125 644.805 -273.3125 644.125 C-273.89 643.8775 -274.4675 643.63 -275.0625 643.375 C-277.64189979 641.94200012 -279.37371592 640.34075324 -281.3125 638.125 C-281.3125 637.465 -281.3125 636.805 -281.3125 636.125 C-281.9725 636.125 -282.6325 636.125 -283.3125 636.125 C-284.6171875 634.8671875 -284.6171875 634.8671875 -286.1875 633 C-286.81011719 632.26523437 -287.43273437 631.53046875 -288.07421875 630.7734375 C-288.81285156 629.89945313 -289.55148437 629.02546875 -290.3125 628.125 C-291.21312509 627.09484907 -292.1155791 626.06629519 -293.01953125 625.0390625 C-313.07388295 602.1479985 -329.69567203 576.95011534 -341.49389648 548.86401367 C-342.39074098 546.84784156 -342.39074098 546.84784156 -344.3125 544.125 C-353.31414474 517.12006579 -353.31414474 517.12006579 -348.375 505.125 C-345.46455596 499.64651709 -342.53633862 496.20693434 -336.5625 494.125 C-329.76088756 492.49097899 -323.38756044 492.69375422 -317.125 496 C-308.76744855 502.080658 -304.68425015 513.1665169 -300.48742676 522.26364136 C-294.66156148 534.83749135 -288.18495644 546.70003131 -280.3125 558.125 C-279.6635376 559.07584473 -279.6635376 559.07584473 -279.00146484 560.04589844 C-276.1929956 564.13937992 -273.29243487 568.15484193 -270.3125 572.125 C-269.66547119 572.98834961 -269.66547119 572.98834961 -269.00537109 573.86914062 C-262.2799501 582.77743832 -255.06535477 591.09891686 -247.3125 599.125 C-246.71356934 599.74584473 -246.11463867 600.36668945 -245.49755859 601.00634766 C-237.81040423 608.93155583 -230.02683064 616.33215221 -221.3125 623.125 C-220.19101562 624.06472656 -220.19101562 624.06472656 -219.046875 625.0234375 C-194.09447872 645.81710107 -163.20321341 661.53360258 -132.3125 671.125 C-130.93143066 671.56320068 -130.93143066 671.56320068 -129.52246094 672.01025391 C-114.31979649 676.80100951 -99.01770905 680.41174194 -83.3125 683.125 C-82.20865967 683.31618408 -82.20865967 683.31618408 -81.08251953 683.51123047 C-63.40783497 686.43744516 -31.93716941 691.4373347 -15.3125 683.125 C-13.67032412 682.94253601 -12.02321373 682.80337155 -10.375 682.6875 C-4.66489669 682.20474358 1.15701508 681.68618855 6.6875 680.125 C7.0175 679.465 7.3475 678.805 7.6875 678.125 C9.68565713 677.78079191 11.68605726 677.44955828 13.6875 677.125 C24.30877011 673.06192106 37.30008762 667.71405191 42.6875 657.125 C43.24329817 654.14790288 43.09902761 652.21145705 42.6875 649.125 C41.37431738 647.22541919 41.37431738 647.22541919 39.6875 646.125 C39.3575 645.465 39.0275 644.805 38.6875 644.125 C29.17358203 640.95369401 18.36617878 641.21354464 8.44140625 640.94921875 C-61.48021916 639.04159316 -61.48021916 639.04159316 -80.125 619.6875 C-86.37736228 611.58565308 -87.32608915 603.16874701 -86.3125 593.125 C-84.60940712 584.28513698 -81.52412738 577.62442478 -75.3125 571.125 C-74.60351562 570.36445312 -73.89453125 569.60390625 -73.1640625 568.8203125 C-55.42042774 551.31247355 -30.06818092 550.06099472 -6.5790863 550.08197021 C-1.42064226 550.14992089 3.71543724 550.45863557 8.86328125 550.78125 C11.18032818 550.91814425 13.49738584 551.05485702 15.81445312 551.19140625 C19.38989634 551.40609349 22.96518794 551.6228538 26.5402832 551.84326172 C38.84044936 552.59648997 51.11107661 553.25853383 63.4375 553.26953125 C64.8261602 553.27122314 64.8261602 553.27122314 66.24287415 553.27294922 C86.34474144 553.15193424 106.45265135 548.84895457 121.6875 535.125 C132.13646604 523.45074804 136.23200633 509.942927 135.625 494.375 C134.97259926 487.1333518 132.95711426 480.43706942 130.74609375 473.546875 C129.6875 470.125 129.6875 470.125 129.6875 468.125 C129.0275 467.795 128.3675 467.465 127.6875 467.125 C127.1925 466.0525 126.6975 464.98 126.1875 463.875 C118.24978324 447.50162853 103.6367678 434.90887039 88.6875 425.125 C87.73359375 424.49851562 86.7796875 423.87203125 85.796875 423.2265625 C49.01615589 400.52114652 5.6051577 397.36079618 -36.3125 401.125 C-35.87679688 400.27421875 -35.44109375 399.4234375 -34.9921875 398.546875 C-16.68399757 361.74948197 -16.50576118 320.9537854 -28.3125 282.125 C-28.52213379 281.43019531 -28.73176758 280.73539062 -28.94775391 280.01953125 C-33.29457912 265.96513102 -39.44982122 251.96865869 -46.97680664 239.33056641 C-50.72260519 233.0191145 -52.15114877 228.56175321 -51.75 221.25 C-51.71217407 219.83110474 -51.71217407 219.83110474 -51.67358398 218.38354492 C-51.58396943 215.29546218 -51.45013869 212.21128285 -51.3125 209.125 C-51.23968804 207.09774448 -51.16941267 205.0703964 -51.1015625 203.04296875 C-50.98699567 199.67724989 -50.87037204 196.31168284 -50.74658203 192.94628906 C-50.31281137 180.95199004 -49.98284452 168.95533158 -49.70700073 156.95639038 C-49.65274244 154.6693639 -49.59447479 152.3824287 -49.53201294 150.09561157 C-49.44401509 146.84254413 -49.37076356 143.58943635 -49.30078125 140.3359375 C-49.2717572 139.36914566 -49.24273315 138.40235382 -49.21282959 137.40626526 C-49.07386518 129.81411857 -48.96437399 121.41237642 -53.5 115.0625 C-58.63356635 111.52604318 -63.4251495 110.53959527 -69.62109375 111.47265625 C-91.38005352 116.7465986 -108.24217886 131.47426207 -124.19140625 146.34765625 C-126.17456826 148.00942183 -128.01192016 148.98977938 -130.3125 150.125 C-130.99518138 151.45020503 -131.6632041 152.78312182 -132.3125 154.125 C-133.3025 154.455 -134.2925 154.785 -135.3125 155.125 C-135.99309096 156.45127982 -136.65717235 157.78605717 -137.3125 159.125 C-138.72221171 160.67078427 -140.18590792 162.16830602 -141.6875 163.625 C-142.45835937 164.3778125 -143.22921875 165.130625 -144.0234375 165.90625 C-144.77882813 166.6384375 -145.53421875 167.370625 -146.3125 168.125 C-147.00601563 168.8571875 -147.69953125 169.589375 -148.4140625 170.34375 C-150.60874348 172.40295684 -152.24961048 173.11323711 -155.27587891 173.14672852 C-156.02272949 173.09959717 -156.76958008 173.05246582 -157.5390625 173.00390625 C-158.39266357 172.95524414 -159.24626465 172.90658203 -160.12573242 172.85644531 C-161.05361572 172.80069336 -161.98149902 172.74494141 -162.9375 172.6875 C-197.12397827 170.95854167 -229.73068664 173.08392286 -262.12451172 184.80175781 C-274.86308384 189.31919772 -274.86308384 189.31919772 -280.22851562 187.46166992 C-284.28074178 185.27224991 -287.64699987 182.25683458 -291.0625 179.1875 C-297.97434428 173.12607134 -305.49046982 168.07160182 -313.125 162.97265625 C-316.31823086 160.83321988 -319.36149267 158.5940888 -322.3125 156.125 C-312.63723937 129.29164169 -279.13552602 99.95881763 -257.3125 83.125 C-254.22432661 80.54870963 -251.15789939 77.97039939 -248.3125 75.125 C-246.89972152 74.17477566 -245.48532876 73.22682101 -244.06103516 72.29394531 C-242.21054788 71.05684212 -240.40734113 69.76776964 -238.60546875 68.4609375 C-229.50688943 61.88276796 -220.25178409 55.86811862 -210.47607422 50.34716797 C-208.28149219 49.10748419 -206.09586449 47.85290622 -203.91015625 46.59765625 C-189.3433591 38.29726406 -174.40830653 31.21671861 -158.8125 25.0625 C-157.81452393 24.66796631 -156.81654785 24.27343262 -155.78833008 23.86694336 C-154.85786865 23.50737549 -153.92740723 23.14780762 -152.96875 22.77734375 C-152.14181641 22.45757568 -151.31488281 22.13780762 -150.46289062 21.80834961 C-148.3125 21.125 -148.3125 21.125 -145.3125 21.125 C-144.9825 20.465 -144.6525 19.805 -144.3125 19.125 C-142.23046875 18.4140625 -142.23046875 18.4140625 -139.5 17.75 C-129.15866663 15.13818603 -129.15866663 15.13818603 -119.3125 11.125 C-117.75615029 10.80094366 -116.19196858 10.51413555 -114.625 10.24609375 C-110.13422638 9.4569965 -105.6597297 8.61101671 -101.1875 7.72265625 C-67.61031935 1.13459359 -34.22769576 -2.31524619 0 0 Z " fill="#000000" transform="translate(537.3125,132.875)"/>
<path d="M0 0 C5.30996581 3.37906915 5.94890898 7.9102605 7.31298828 13.66845703 C8.39972803 18.93841106 9.0258178 24.21177458 9.5625 29.5625 C9.68616943 30.73981689 9.80983887 31.91713379 9.93725586 33.13012695 C11.0984328 44.79100278 11.74157435 56.47887222 12.26586914 68.18383789 C12.78292347 79.25400148 13.85327258 87.8345771 19.625 97.4375 C39.58610773 132.1559314 48.46429722 171.71889448 37.93359375 211.09375 C32.43159971 230.42180532 23.01932364 248.08124824 11.5625 264.5 C11.04212158 265.24886475 10.52174316 265.99772949 9.9855957 266.76928711 C9.25215942 267.79614624 9.25215942 267.79614624 8.50390625 268.84375 C8.06892822 269.45412109 7.6339502 270.06449219 7.18579102 270.69335938 C6.79447998 271.12455078 6.40316895 271.55574219 6 272 C5.34 272 4.68 272 4 272 C3.34 273.65 2.68 275.3 2 277 C3.61672607 276.65219482 3.61672607 276.65219482 5.26611328 276.29736328 C9.33182236 275.42405147 13.39886736 274.55709964 17.46630859 273.69189453 C19.21406496 273.31923243 20.96147283 272.94493148 22.70849609 272.56884766 C70.29305016 262.33120694 117.82928267 263.73970943 160.29296875 289.89306641 C164.47310257 292.60369666 168.24328178 295.74183691 172 299 C172.59683594 299.45375 173.19367188 299.9075 173.80859375 300.375 C186.21987622 310.00592589 193.65111149 324.32673379 196.63671875 339.48828125 C197.19715862 344.9058667 196.33108602 349.75681969 195 355 C194.84917969 355.72316406 194.69835937 356.44632813 194.54296875 357.19140625 C192.70387314 363.31731464 184.14727246 367.96922838 179 371 C166.02982784 376.97381373 152.05248737 376.23478054 138.125 375.25 C136.70976319 375.1576521 135.29447825 375.06603936 133.87915039 374.97509766 C125.84769449 374.44913831 117.82379668 373.83615669 109.80078125 373.1953125 C52.89137633 367.42703577 52.89137633 367.42703577 1.61328125 388.6796875 C-9.88188505 398.62886238 -16.93017805 409.61097171 -20.12890625 424.58984375 C-21.2770573 427.76656661 -22.18513285 429.08340009 -25 431 C-31.44385552 432.19526355 -36.74635318 430.37736257 -42.5 427.625 C-43.27045654 427.26849365 -44.04091309 426.9119873 -44.8347168 426.54467773 C-76.29192362 411.64794482 -116.48539213 384.01224439 -130.92944336 350.8671875 C-132.289625 348.49485702 -133.52181074 348.07770831 -136 347 C-136.63180176 346.55970459 -137.26360352 346.11940918 -137.91455078 345.66577148 C-145.43422704 340.4956747 -153.53252019 338.72965293 -162.27935791 336.67507935 C-166.6708223 335.63868053 -171.04577319 334.53666317 -175.421875 333.4375 C-176.27109528 333.22501114 -177.12031555 333.01252228 -177.99526978 332.79359436 C-206.76744322 325.54477178 -230.99399863 311.79275411 -253 292 C-253.78890625 291.30777344 -254.5778125 290.61554688 -255.390625 289.90234375 C-266.38894369 279.65761357 -276.45918236 265.54883653 -283 252 C-283 251.34 -283 250.68 -283 250 C-283.99 250 -284.98 250 -286 250 C-286.08636719 249.21109375 -286.17273438 248.4221875 -286.26171875 247.609375 C-287.22520568 242.89899446 -289.01135262 238.69478002 -290.8125 234.25 C-306.32803607 194.57465633 -302.94372878 151.16456365 -286.22973633 112.39526367 C-285.3693213 110.44152382 -284.49635541 108.49437091 -283.61328125 106.55078125 C-283.08089844 105.37902344 -282.54851562 104.20726562 -282 103 C-281.47704346 101.98357422 -280.95408691 100.96714844 -280.4152832 99.91992188 C-278.43599436 95.25557181 -278.64206174 90.72506453 -278.7421875 85.73046875 C-278.7492572 84.74442154 -278.7563269 83.75837433 -278.76361084 82.7424469 C-278.77982256 80.64143084 -278.80257682 78.54045664 -278.83135986 76.4395752 C-278.90435047 71.00029474 -278.92561079 65.56076111 -278.953125 60.12109375 C-278.95974152 59.05923859 -278.96635803 57.99738342 -278.97317505 56.90335083 C-279.01715068 48.84385325 -278.93325417 40.80484234 -278.625 32.75 C-278.59390137 31.79762451 -278.56280273 30.84524902 -278.53076172 29.86401367 C-277.68257931 10.29726184 -277.68257931 10.29726184 -273 4 C-268.95679862 1.46308933 -266.93494363 0.83036074 -262.2109375 1.6875 C-257.99742558 2.85373557 -254.5031533 4.6917256 -250.8125 7 C-249.84594482 7.59385498 -249.84594482 7.59385498 -248.85986328 8.19970703 C-237.41341254 15.36884424 -227.20869335 24.20270989 -217 33 C-215.97712891 33.87011719 -215.97712891 33.87011719 -214.93359375 34.7578125 C-211.63211334 37.59580214 -208.45809616 40.52022924 -205.35546875 43.57421875 C-204.69208496 44.21770264 -204.02870117 44.86118652 -203.34521484 45.52416992 C-202.00636821 46.82554943 -200.67944495 48.13932685 -199.36572266 49.46606445 C-198.74616699 50.06507568 -198.12661133 50.66408691 -197.48828125 51.28125 C-196.93696533 51.82845703 -196.38564941 52.37566406 -195.81762695 52.93945312 C-193.99650754 54.23810442 -193.99650754 54.23810442 -191.56005859 53.77441406 C-189.16803038 53.05082895 -186.86798999 52.26278894 -184.55078125 51.328125 C-183.71240723 50.99578857 -182.8740332 50.66345215 -182.01025391 50.32104492 C-181.11999512 49.9676001 -180.22973633 49.61415527 -179.3125 49.25 C-142.09664093 34.88559002 -101.37358676 32.61579461 -62.57421875 42.546875 C-59.8264826 43.03054328 -58.59027193 42.9478118 -56 42 C-54.3211283 40.47783608 -54.3211283 40.47783608 -52.8125 38.51953125 C-18.0032498 -3.05715563 -18.0032498 -3.05715563 0 0 Z M-10.75 168.75 C-16.49187673 174.82760865 -22.05499763 178.03677054 -30.5 178.4375 C-38.17775194 178.00571079 -44.09858753 175.87411748 -50.1875 171.1875 C-53.35596274 168.75034296 -53.35596274 168.75034296 -57.11328125 167.78125 C-59.29576739 168.14413029 -59.29576739 168.14413029 -62 170 C-63.93270858 172.6305719 -63.93270858 172.6305719 -64 176 C-60.94487272 183.77668763 -54.80126127 187.91693975 -47.375 191.3125 C-35.38170651 195.69042002 -23.23907839 194.41337959 -11.75 189.25 C-5.95770398 186.09386375 0.55074779 181.2762088 3 175 C3.4908288 171.44499711 3.68802789 168.2231607 1.875 165 C-3.71622268 162.01801457 -7.01994824 164.41913453 -10.75 168.75 Z M-205.9375 174.4375 C-208.26742808 176.90346038 -208.26742808 176.90346038 -208.5625 180.375 C-207.52468274 187.0631557 -203.41105019 191.05059023 -198.40625 195.26171875 C-186.23283832 204.05582296 -173.63364597 206.71762267 -158.8515625 204.53515625 C-147.711513 202.06446286 -137.54255496 197.67671303 -131 188 C-129.21453755 184.96941241 -128.99776741 184.06474523 -129.125 180.375 C-129.66011978 177.0218027 -129.66011978 177.0218027 -131.6875 175.5 C-134.88118738 174.809473 -136.86404317 175.04001322 -140 176 C-141.71230248 177.61974559 -143.37163262 179.2958946 -145 181 C-152.37703983 186.86342409 -159.93449649 190.47640161 -169.5 189.9375 C-179.84526885 188.51357255 -185.9706322 184.69923201 -193.26171875 177.2421875 C-197.30675542 173.92998914 -201.05322793 172.04732431 -205.9375 174.4375 Z " fill="#000000" transform="translate(454,289)"/>
<path d="M0 0 C1.32 0.33 2.64 0.66 4 1 C3.01 1.495 3.01 1.495 2 2 C1.34 1.34 0.68 0.68 0 0 Z " fill="#121313" transform="translate(596,568)"/>
<path d="M0 0 C0.33 0.66 0.66 1.32 1 2 C-0.32 1.67 -1.64 1.34 -3 1 C-2.01 0.67 -1.02 0.34 0 0 Z " fill="#141414" transform="translate(287,491)"/>
<path d="M0 0 C0.99 0.495 0.99 0.495 2 1 C1.67 1.99 1.34 2.98 1 4 C0.67 2.68 0.34 1.36 0 0 Z " fill="#131312" transform="translate(506,411)"/>
<path d="M0 0 C1 4 1 4 1 4 Z " fill="#151513" transform="translate(513,435)"/>
<path d="M0 0 C1 4 1 4 1 4 Z " fill="#121113" transform="translate(484,353)"/>
<path d="M0 0 C4 1 4 1 4 1 Z " fill="#121112" transform="translate(340,324)"/>
<path d="M0 0 C3 1 3 1 3 1 Z " fill="#131412" transform="translate(421,808)"/>
<path d="M0 0 C3 1 3 1 3 1 Z " fill="#121212" transform="translate(396,800)"/>
<path d="" fill="#222121" transform="translate(0,0)"/>
<path d="M0 0 C0.99 0.495 0.99 0.495 2 1 C1.01 1.495 1.01 1.495 0 2 C0 1.34 0 0.68 0 0 Z " fill="#151614" transform="translate(649,579)"/>
<path d="" fill="#20201E" transform="translate(0,0)"/>
<path d="" fill="#121213" transform="translate(0,0)"/>
<path d="" fill="#131311" transform="translate(0,0)"/>
<path d="M0 0 C3 1 3 1 3 1 Z " fill="#151414" transform="translate(288,331)"/>
<path d="M0 0 C2 1 2 1 2 1 Z " fill="#161618" transform="translate(505,877)"/>
<path d="M0 0 C2 1 2 1 2 1 Z " fill="#181818" transform="translate(401,860)"/>
<path d="M0 0 C2 1 2 1 2 1 Z " fill="#131212" transform="translate(462,816)"/>
<path d="" fill="#151412" transform="translate(0,0)"/>
<path d="M0 0 C2 1 2 1 2 1 Z " fill="#151513" transform="translate(531,774)"/>
<path d="" fill="#1A1B1A" transform="translate(0,0)"/>
<path d="" fill="#1B1C1B" transform="translate(0,0)"/>
<path d="" fill="#1B1B1A" transform="translate(0,0)"/>
<path d="" fill="#1B1B1B" transform="translate(0,0)"/>
<path d="M0 0 C2 1 2 1 2 1 Z " fill="#121213" transform="translate(481,688)"/>
<path d="" fill="#222321" transform="translate(0,0)"/>
<path d="" fill="#151514" transform="translate(0,0)"/>
<path d="" fill="#141514" transform="translate(0,0)"/>
<path d="" fill="#181515" transform="translate(0,0)"/>
<path d="M0 0 C2 1 2 1 2 1 Z " fill="#121212" transform="translate(611,576)"/>
<path d="M0 0 C2 1 2 1 2 1 Z " fill="#111211" transform="translate(574,560)"/>
<path d="M0 0 C2 1 2 1 2 1 Z " fill="#161617" transform="translate(552,534)"/>
<path d="M0 0 C2 1 2 1 2 1 Z " fill="#151515" transform="translate(545,533)"/>
<path d="M0 0 C2 1 2 1 2 1 Z " fill="#131313" transform="translate(304,488)"/>
<path d="M0 0 C2 1 2 1 2 1 Z " fill="#121413" transform="translate(420,481)"/>
<path d="" fill="#131411" transform="translate(0,0)"/>
<path d="M0 0 C2 1 2 1 2 1 Z " fill="#151414" transform="translate(488,373)"/>
<path d="" fill="#1B1B1B" transform="translate(0,0)"/>
<path d="" fill="#121212" transform="translate(0,0)"/>
<path d="M0 0 C2 1 2 1 2 1 Z " fill="#131312" transform="translate(272,337)"/>
<path d="" fill="#131413" transform="translate(0,0)"/>
<path d="M0 0 C2 1 2 1 2 1 Z " fill="#111211" transform="translate(337,324)"/>
<path d="M0 0 C2 1 2 1 2 1 Z " fill="#191817" transform="translate(205,296)"/>
<path d="" fill="#1A1A18" transform="translate(0,0)"/>
<path d="" fill="#1A1A19" transform="translate(0,0)"/>
<path d="M0 0 C2 1 2 1 2 1 Z " fill="#191B19" transform="translate(306,194)"/>
<path d="" fill="#181818" transform="translate(0,0)"/>
<path d="M0 0 C2 1 2 1 2 1 Z " fill="#181918" transform="translate(369,160)"/>
<path d="M0 0 C2 1 2 1 2 1 Z " fill="#1B1C1B" transform="translate(648,155)"/>
<path d="M0 0 C2 1 2 1 2 1 Z " fill="#1B1C1C" transform="translate(408,146)"/>
<path d="" fill="#5F5F5F" transform="translate(0,0)"/>
<path d="" fill="#181817" transform="translate(0,0)"/>
<path d="" fill="#171816" transform="translate(0,0)"/>
<path d="" fill="#181817" transform="translate(0,0)"/>
<path d="" fill="#171816" transform="translate(0,0)"/>
<path d="" fill="#1A1919" transform="translate(0,0)"/>
<path d="" fill="#181717" transform="translate(0,0)"/>
<path d="" fill="#181819" transform="translate(0,0)"/>
<path d="" fill="#181819" transform="translate(0,0)"/>
<path d="" fill="#1A1718" transform="translate(0,0)"/>
<path d="" fill="#191A18" transform="translate(0,0)"/>
<path d="" fill="#1A1918" transform="translate(0,0)"/>
<path d="" fill="#191818" transform="translate(0,0)"/>
<path d="" fill="#1A1919" transform="translate(0,0)"/>
<path d="" fill="#1C191A" transform="translate(0,0)"/>
<path d="" fill="#191819" transform="translate(0,0)"/>
<path d="" fill="#171818" transform="translate(0,0)"/>
<path d="" fill="#1B1C1B" transform="translate(0,0)"/>
<path d="" fill="#1C1B1B" transform="translate(0,0)"/>
<path d="" fill="#161615" transform="translate(0,0)"/>
<path d="" fill="#151617" transform="translate(0,0)"/>
<path d="" fill="#161514" transform="translate(0,0)"/>
<path d="" fill="#151514" transform="translate(0,0)"/>
<path d="" fill="#121314" transform="translate(0,0)"/>
<path d="" fill="#151616" transform="translate(0,0)"/>
<path d="" fill="#1A1A1B" transform="translate(0,0)"/>
<path d="" fill="#181815" transform="translate(0,0)"/>
<path d="" fill="#1A1818" transform="translate(0,0)"/>
<path d="" fill="#121311" transform="translate(0,0)"/>
<path d="" fill="#1A1A19" transform="translate(0,0)"/>
<path d="" fill="#141311" transform="translate(0,0)"/>
<path d="" fill="#111411" transform="translate(0,0)"/>
<path d="" fill="#131212" transform="translate(0,0)"/>
<path d="" fill="#141412" transform="translate(0,0)"/>
<path d="" fill="#191A1A" transform="translate(0,0)"/>
<path d="" fill="#151716" transform="translate(0,0)"/>
<path d="" fill="#101112" transform="translate(0,0)"/>
<path d="" fill="#1B1918" transform="translate(0,0)"/>
<path d="" fill="#1C1C1A" transform="translate(0,0)"/>
<path d="" fill="#1B1B1B" transform="translate(0,0)"/>
<path d="" fill="#151312" transform="translate(0,0)"/>
<path d="" fill="#191A18" transform="translate(0,0)"/>
<path d="" fill="#131212" transform="translate(0,0)"/>
<path d="" fill="#141512" transform="translate(0,0)"/>
<path d="" fill="#1D1B1B" transform="translate(0,0)"/>
<path d="" fill="#131511" transform="translate(0,0)"/>
<path d="" fill="#151313" transform="translate(0,0)"/>
<path d="" fill="#161615" transform="translate(0,0)"/>
<path d="" fill="#1B1918" transform="translate(0,0)"/>
<path d="" fill="#1F1D1C" transform="translate(0,0)"/>
<path d="" fill="#1D1B1A" transform="translate(0,0)"/>
<path d="" fill="#1C1C1A" transform="translate(0,0)"/>
<path d="" fill="#1A1C1D" transform="translate(0,0)"/>
<path d="" fill="#1D1D1E" transform="translate(0,0)"/>
<path d="" fill="#151512" transform="translate(0,0)"/>
<path d="" fill="#1D1C1B" transform="translate(0,0)"/>
<path d="" fill="#151515" transform="translate(0,0)"/>
<path d="" fill="#1B1E1C" transform="translate(0,0)"/>
<path d="" fill="#171415" transform="translate(0,0)"/>
<path d="" fill="#151513" transform="translate(0,0)"/>
<path d="" fill="#1B1B1A" transform="translate(0,0)"/>
<path d="" fill="#141514" transform="translate(0,0)"/>
<path d="" fill="#1A1A1A" transform="translate(0,0)"/>
<path d="" fill="#1C1B1C" transform="translate(0,0)"/>
<path d="" fill="#121112" transform="translate(0,0)"/>
<path d="" fill="#141513" transform="translate(0,0)"/>
<path d="" fill="#141616" transform="translate(0,0)"/>
<path d="" fill="#1D1E1E" transform="translate(0,0)"/>
<path d="" fill="#131312" transform="translate(0,0)"/>
<path d="" fill="#121313" transform="translate(0,0)"/>
<path d="" fill="#141414" transform="translate(0,0)"/>
<path d="" fill="#121516" transform="translate(0,0)"/>
<path d="" fill="#131312" transform="translate(0,0)"/>
<path d="" fill="#1E1E1E" transform="translate(0,0)"/>
<path d="" fill="#121313" transform="translate(0,0)"/>
<path d="" fill="#1D1C1A" transform="translate(0,0)"/>
<path d="" fill="#151415" transform="translate(0,0)"/>
<path d="" fill="#191B19" transform="translate(0,0)"/>
<path d="" fill="#131314" transform="translate(0,0)"/>
<path d="" fill="#111210" transform="translate(0,0)"/>
<path d="" fill="#111213" transform="translate(0,0)"/>
<path d="" fill="#151715" transform="translate(0,0)"/>
<path d="" fill="#1E1F1C" transform="translate(0,0)"/>
<path d="" fill="#131412" transform="translate(0,0)"/>
<path d="" fill="#1D1D1E" transform="translate(0,0)"/>
<path d="" fill="#161514" transform="translate(0,0)"/>
<path d="" fill="#1D1E1E" transform="translate(0,0)"/>
<path d="" fill="#131413" transform="translate(0,0)"/>
<path d="" fill="#131314" transform="translate(0,0)"/>
<path d="" fill="#141513" transform="translate(0,0)"/>
<path d="" fill="#141515" transform="translate(0,0)"/>
<path d="" fill="#161514" transform="translate(0,0)"/>
<path d="" fill="#221F1F" transform="translate(0,0)"/>
<path d="" fill="#222222" transform="translate(0,0)"/>
<path d="" fill="#151616" transform="translate(0,0)"/>
<path d="" fill="#171616" transform="translate(0,0)"/>
<path d="" fill="#151312" transform="translate(0,0)"/>
<path d="" fill="#141413" transform="translate(0,0)"/>
<path d="" fill="#141413" transform="translate(0,0)"/>
<path d="" fill="#1E1E1F" transform="translate(0,0)"/>
<path d="" fill="#141515" transform="translate(0,0)"/>
<path d="" fill="#1F1F1D" transform="translate(0,0)"/>
<path d="" fill="#232623" transform="translate(0,0)"/>
<path d="" fill="#201F1F" transform="translate(0,0)"/>
<path d="" fill="#222121" transform="translate(0,0)"/>
<path d="" fill="#191717" transform="translate(0,0)"/>
<path d="" fill="#181718" transform="translate(0,0)"/>
<path d="" fill="#191A18" transform="translate(0,0)"/>
<path d="" fill="#141516" transform="translate(0,0)"/>
<path d="" fill="#161818" transform="translate(0,0)"/>
<path d="" fill="#171817" transform="translate(0,0)"/>
<path d="" fill="#161617" transform="translate(0,0)"/>
<path d="" fill="#161615" transform="translate(0,0)"/>
<path d="" fill="#161617" transform="translate(0,0)"/>
<path d="" fill="#131415" transform="translate(0,0)"/>
<path d="" fill="#151616" transform="translate(0,0)"/>
<path d="" fill="#191819" transform="translate(0,0)"/>
<path d="" fill="#161716" transform="translate(0,0)"/>
<path d="" fill="#161415" transform="translate(0,0)"/>
<path d="" fill="#161816" transform="translate(0,0)"/>
<path d="" fill="#191615" transform="translate(0,0)"/>
<path d="" fill="#131412" transform="translate(0,0)"/>
<path d="" fill="#151213" transform="translate(0,0)"/>
<path d="" fill="#161515" transform="translate(0,0)"/>
<path d="" fill="#141311" transform="translate(0,0)"/>
<path d="" fill="#12110F" transform="translate(0,0)"/>
<path d="" fill="#111312" transform="translate(0,0)"/>
<path d="" fill="#131312" transform="translate(0,0)"/>
<path d="" fill="#131413" transform="translate(0,0)"/>
<path d="" fill="#131312" transform="translate(0,0)"/>
<path d="" fill="#1B1B1A" transform="translate(0,0)"/>
<path d="" fill="#151515" transform="translate(0,0)"/>
<path d="" fill="#131213" transform="translate(0,0)"/>
<path d="" fill="#141513" transform="translate(0,0)"/>
<path d="" fill="#131412" transform="translate(0,0)"/>
<path d="" fill="#1C1B1A" transform="translate(0,0)"/>
<path d="" fill="#131516" transform="translate(0,0)"/>
<path d="" fill="#1B1A1B" transform="translate(0,0)"/>
<path d="" fill="#121213" transform="translate(0,0)"/>
<path d="" fill="#1E1E1F" transform="translate(0,0)"/>
<path d="" fill="#131413" transform="translate(0,0)"/>
<path d="" fill="#1D1E1E" transform="translate(0,0)"/>
<path d="" fill="#1C1A1D" transform="translate(0,0)"/>
<path d="" fill="#151412" transform="translate(0,0)"/>
<path d="" fill="#131414" transform="translate(0,0)"/>
<path d="" fill="#1D1B19" transform="translate(0,0)"/>
<path d="" fill="#151314" transform="translate(0,0)"/>
<path d="" fill="#161616" transform="translate(0,0)"/>
<path d="" fill="#161515" transform="translate(0,0)"/>
<path d="" fill="#171615" transform="translate(0,0)"/>
<path d="" fill="#171714" transform="translate(0,0)"/>
<path d="" fill="#171615" transform="translate(0,0)"/>
<path d="" fill="#141616" transform="translate(0,0)"/>
<path d="" fill="#1B1B1D" transform="translate(0,0)"/>
<path d="" fill="#141312" transform="translate(0,0)"/>
<path d="" fill="#131412" transform="translate(0,0)"/>
<path d="" fill="#131314" transform="translate(0,0)"/>
<path d="" fill="#202220" transform="translate(0,0)"/>
<path d="" fill="#141111" transform="translate(0,0)"/>
<path d="" fill="#131013" transform="translate(0,0)"/>
<path d="" fill="#141314" transform="translate(0,0)"/>
<path d="" fill="#111312" transform="translate(0,0)"/>
<path d="" fill="#21201F" transform="translate(0,0)"/>
<path d="" fill="#141112" transform="translate(0,0)"/>
<path d="" fill="#11110E" transform="translate(0,0)"/>
<path d="" fill="#141413" transform="translate(0,0)"/>
<path d="" fill="#161514" transform="translate(0,0)"/>
<path d="" fill="#121110" transform="translate(0,0)"/>
<path d="" fill="#141615" transform="translate(0,0)"/>
<path d="" fill="#111011" transform="translate(0,0)"/>
<path d="" fill="#121413" transform="translate(0,0)"/>
<path d="" fill="#12130E" transform="translate(0,0)"/>
<path d="" fill="#121310" transform="translate(0,0)"/>
<path d="" fill="#131215" transform="translate(0,0)"/>
<path d="" fill="#10120F" transform="translate(0,0)"/>
<path d="" fill="#141415" transform="translate(0,0)"/>
<path d="" fill="#121311" transform="translate(0,0)"/>
<path d="" fill="#151412" transform="translate(0,0)"/>
<path d="" fill="#141213" transform="translate(0,0)"/>
<path d="" fill="#131313" transform="translate(0,0)"/>
<path d="" fill="#141314" transform="translate(0,0)"/>
<path d="" fill="#131311" transform="translate(0,0)"/>
<path d="" fill="#121413" transform="translate(0,0)"/>
<path d="" fill="#1F1F1E" transform="translate(0,0)"/>
<path d="" fill="#131212" transform="translate(0,0)"/>
<path d="" fill="#121413" transform="translate(0,0)"/>
<path d="" fill="#1B1D1C" transform="translate(0,0)"/>
<path d="" fill="#121412" transform="translate(0,0)"/>
<path d="" fill="#1D1E1C" transform="translate(0,0)"/>
<path d="" fill="#131615" transform="translate(0,0)"/>
<path d="" fill="#1E1E1E" transform="translate(0,0)"/>
<path d="" fill="#131513" transform="translate(0,0)"/>
<path d="" fill="#151414" transform="translate(0,0)"/>
<path d="" fill="#141314" transform="translate(0,0)"/>
<path d="" fill="#1E1E1E" transform="translate(0,0)"/>
<path d="" fill="#151511" transform="translate(0,0)"/>
<path d="" fill="#131114" transform="translate(0,0)"/>
<path d="" fill="#151615" transform="translate(0,0)"/>
<path d="" fill="#141414" transform="translate(0,0)"/>
<path d="" fill="#161313" transform="translate(0,0)"/>
<path d="" fill="#121212" transform="translate(0,0)"/>
<path d="" fill="#121412" transform="translate(0,0)"/>
<path d="" fill="#111211" transform="translate(0,0)"/>
<path d="" fill="#1C1B1A" transform="translate(0,0)"/>
<path d="" fill="#1E1D1C" transform="translate(0,0)"/>
<path d="" fill="#121411" transform="translate(0,0)"/>
<path d="" fill="#141213" transform="translate(0,0)"/>
<path d="" fill="#131211" transform="translate(0,0)"/>
<path d="" fill="#101211" transform="translate(0,0)"/>
<path d="" fill="#131313" transform="translate(0,0)"/>
<path d="" fill="#121313" transform="translate(0,0)"/>
<path d="" fill="#131211" transform="translate(0,0)"/>
<path d="" fill="#120F12" transform="translate(0,0)"/>
<path d="" fill="#151616" transform="translate(0,0)"/>
<path d="" fill="#151514" transform="translate(0,0)"/>
<path d="" fill="#121412" transform="translate(0,0)"/>
<path d="" fill="#121312" transform="translate(0,0)"/>
<path d="" fill="#121211" transform="translate(0,0)"/>
<path d="" fill="#181A1B" transform="translate(0,0)"/>
<path d="" fill="#111213" transform="translate(0,0)"/>
<path d="" fill="#121615" transform="translate(0,0)"/>
<path d="" fill="#121111" transform="translate(0,0)"/>
<path d="" fill="#111413" transform="translate(0,0)"/>
<path d="" fill="#141415" transform="translate(0,0)"/>
<path d="" fill="#141013" transform="translate(0,0)"/>
<path d="" fill="#121312" transform="translate(0,0)"/>
<path d="" fill="#131412" transform="translate(0,0)"/>
<path d="" fill="#1F1F1D" transform="translate(0,0)"/>
<path d="" fill="#121212" transform="translate(0,0)"/>
<path d="" fill="#1C191C" transform="translate(0,0)"/>
<path d="" fill="#181A1D" transform="translate(0,0)"/>
<path d="" fill="#1B191D" transform="translate(0,0)"/>
<path d="" fill="#191818" transform="translate(0,0)"/>
<path d="" fill="#141411" transform="translate(0,0)"/>
<path d="" fill="#151514" transform="translate(0,0)"/>
<path d="" fill="#1A1C1A" transform="translate(0,0)"/>
<path d="" fill="#171819" transform="translate(0,0)"/>
<path d="" fill="#161616" transform="translate(0,0)"/>
<path d="" fill="#141415" transform="translate(0,0)"/>
<path d="" fill="#141314" transform="translate(0,0)"/>
<path d="" fill="#151417" transform="translate(0,0)"/>
<path d="" fill="#18191A" transform="translate(0,0)"/>
<path d="" fill="#191B19" transform="translate(0,0)"/>
<path d="" fill="#1C1B1D" transform="translate(0,0)"/>
<path d="" fill="#171813" transform="translate(0,0)"/>
<path d="" fill="#1A1617" transform="translate(0,0)"/>
<path d="" fill="#1B1B1A" transform="translate(0,0)"/>
<path d="" fill="#191A1B" transform="translate(0,0)"/>
<path d="" fill="#1D191B" transform="translate(0,0)"/>
<path d="" fill="#1D1B1A" transform="translate(0,0)"/>
<path d="" fill="#1C1D19" transform="translate(0,0)"/>
<path d="" fill="#1D1B1A" transform="translate(0,0)"/>
<path d="" fill="#1D1C1D" transform="translate(0,0)"/>
<path d="" fill="#171919" transform="translate(0,0)"/>
<path d="" fill="#1B1B1D" transform="translate(0,0)"/>
<path d="" fill="#1A1918" transform="translate(0,0)"/>
<path d="" fill="#171816" transform="translate(0,0)"/>
<path d="" fill="#1B1B1B" transform="translate(0,0)"/>
<path d="" fill="#1B1D1A" transform="translate(0,0)"/>
<path d="" fill="#1A1A19" transform="translate(0,0)"/>
<path d="" fill="#181618" transform="translate(0,0)"/>
<path d="" fill="#1A1C1C" transform="translate(0,0)"/>
<path d="" fill="#1C1A1B" transform="translate(0,0)"/>
<path d="" fill="#191819" transform="translate(0,0)"/>
<path d="" fill="#1B1E1B" transform="translate(0,0)"/>
<path d="" fill="#191A1B" transform="translate(0,0)"/>
<path d="" fill="#1A1B1B" transform="translate(0,0)"/>
<path d="" fill="#1B1D1B" transform="translate(0,0)"/>
<path d="" fill="#1C1C1B" transform="translate(0,0)"/>
<path d="" fill="#1E1D1B" transform="translate(0,0)"/>
</svg>
