<?xml version="1.0" encoding="UTF-8"?>
<svg width="512" height="512" version="1.1" viewBox="0 0 512 512" xml:space="preserve" xmlns="http://www.w3.org/2000/svg"><path d="m466 580c-3.88-31.3-5-47.4-7.94-114-2.27-51.3-7.19-110-11.7-140-5.48-36.3-18-89.9-23.8-102-5.02-10.3-7.03-9.64-25 8.41-21.6 21.7-34.8 41.1-45.2 66.7-5.92 14.4-7.31 15.2-16.1 8.32-8.94-6.95-29-18.5-39-22.5-24-9.59-50.3-9.82-75.8-0.684-14.7 5.3-36.3 17.3-44.5 24.7-6.12 5.54-7.52 4.52-13.6-9.85-3.01-7.11-6.85-15.4-8.54-18.4-1.69-3-4.43-7.9-6.08-10.9-7.75-14-38.2-48.2-44.6-50.2-5.23-1.58-8.29 0.995-12.1 10.2-6.39 15.5-14.6 47.4-18.3 70.9-4.09 26.1-7.34 52-8.9 71-3.65 44.3-6.3 81.2-7.25 101-2.81 58.1-4.76 86-6.81 97.7l-1.2 6.85-2.46-3.53c-5.56-7.98-20.5-37-26.4-51.4l-5.82-8.9 0.172-18c0.098-10.3 2-30.1 6.24-91.1 5.93-85.3 22.5-160 44.8-202 5.04-9.5 16-22.7 22.6-27.1 13.5-9.09 29.8-11 43.8-5.1 14.8 6.27 33.7 22 50.4 42 17.3 20.8 19.5 21.8 35.3 16.9 28.5-8.93 49.6-9.24 76.3-1.1 18.8 5.74 21.7 4.71 37.2-13.5 30.2-35.4 49.8-48 72.8-46.7 8.89 0.505 11.4 1.21 18.5 5.26 23.4 13.2 42.6 52.4 56.1 114 2.44 11.2 5.65 29.3 7.13 40.1 3.02 22.2 3.09 22.9 5.51 49.6 0.955 10.6 2.77 30.6 4.04 44.4 1.27 13.9 2.71 33 3.2 42.4 0.492 9.48 1.48 28.4 2.19 42.1l-0.332 12.9-1.93 19.6c-1.66 16.8-28.8 51.9-30.8 52-0.324 0.0273-1.2-4.87-1.94-10.9zm-298-92.6c-16-2.49-29.6-14.9-37.1-33.9-4.02-10.2-8.35-32.4-7.8-40.1 0.302-4.31 0.719-4.83 4.73-5.99 5.98-1.73 39.7-1.85 41.2-0.156 0.607 0.732 1.62 8.96 2.25 18.3 1.22 18.1 1.99 23.5 3.36 23.5 1.35 0 2.13-5.27 3.26-22 0.576-8.52 1.3-15.8 1.6-16.2 0.305-0.368 4.32 1.49 8.93 4.12 14.5 8.31 24.4 23.2 28.6 43.2 0.935 4.4 1.55 10.8 1.36 14.3l-0.336 6.25-9.9 3.7c-8.94 3.34-25.1 6.6-30.8 6.2-1.21-0.0864-5.41-0.658-9.34-1.27zm160-0.0347c-4.24-0.627-12.2-2.82-17.6-4.87l-9.9-3.73-0.336-6.25c-1.14-21.2 12.4-47.6 29.2-57.2 3.76-2.14 7.11-3.55 7.45-3.15 0.336 0.406 1.09 7.82 1.68 16.5 1.16 17.1 2.28 23.9 3.87 23.4 1.67-0.585 2.58-6.62 3.84-25.5 0.7-10.5 1.72-18.3 2.45-18.8 3.82-2.84 31.9-2.86 42.6-0.0201 3.43 0.907 3.89 1.54 4.18 5.75 0.542 7.73-3.78 29.9-7.81 40.1-7.73 19.5-21 31.3-38.2 34-9.4 1.45-10.8 1.44-21.5-0.13z" stroke-width="1.21"/></svg>
