<svg width="512" height="512" version="1.1" viewBox="0 0 512 512" xmlns="http://www.w3.org/2000/svg">
 <path d="m252 489c-0.95-0.54-2.1-2.3-3.8-5.8-2.8-5.9-4.3-7.2-9.6-8.5-5.6-1.4-7.3-3.8-5-7.1 2.8-4.2 11-5.7 18-3.2 3.6 1.2 3.6 1.2 7.1 0.035 10-3.4 22 1.3 19 7.5-0.78 1.4-1.3 1.7-4.9 2.7-6.3 1.7-8.5 3.7-11 10-1.8 4.8-6.3 6.8-10 4.5zm-74-67c-0.14-0.14-1.9-0.38-4-0.54-3.8-0.29-4.6-0.42-8.8-1.4-21-4.8-33-18-38-43-0.91-4.4-1.5-14-0.96-14 0.91-0.55 13-2.8 18-3.3 2.7-0.29 5.9-0.63 7-0.75l2.1-0.22-2.1 3.1c-9.4 14-7.8 32 3.6 44 19 19 52 6.3 53-21 0.26-6.3 0.33-6.3 2.9-1.7 4.4 7.8 6.8 15 8.3 26 1.1 8.5 1.1 8.5-1.4 9.2-3.3 0.85-9.5 2.1-15 2.8-4.7 0.69-24 1.5-25 1.1zm139-0.16c-8-0.73-19-2.5-24-3.8-2.2-0.64-2.2-0.8-1.1-9.3 1.4-11 4.2-19 8.8-27l2.1-3.5 0.29 5.7c1.6 32 42 43 58 15 6.7-11 6-26-1.7-38l-1.9-2.8 2.1 0.22c1.1 0.12 4.3 0.46 7 0.76 4.7 0.51 17 2.8 18 3.3 3.4 2-4.2 29-11 39-5.8 8.3-17 16-25 17-0.77 0.13-2.1 0.45-3 0.71s-2.7 0.64-4 0.83c-1.4 0.19-3 0.44-3.7 0.55-1.8 0.29-19 0.59-21 0.37zm-255-59c-8.7-12-14-20-20-29-4.3-6.8-11-18-15-28-5.5-11-6.6-14-9.7-22-1.2-3.2-2.5-6.3-2.7-7-0.62-1.5-3.4-9.9-4.8-15-2.5-8.4-5-19-6.4-28-3-19-3.3-36-0.99-53 0.29-2.2 0.62-4.7 0.74-5.6 3-24 15-52 30-73 21-29 55-49 90-55 7.7-1.3 9.9-1.5 18-2.1 6.4-0.45 9.7-0.45 16 0.039 4.1 0.34 7.7 0.61 8.1 0.59 2-0.079 11 1.4 19 3.2 23 5 43 14 67 29 2 1.3 3.2 1.6 4.9 1.6 2.3-0.0081 3.3-0.41 7.5-3.1 17-11 39-21 56-25 7.6-2 25-5.2 27-5.1 0.41 0.014 4.1-0.25 8.1-0.59 73-6.1 145 55 153 131 0.16 1.4 0.37 2.7 0.47 2.9 0.1 0.17 0.53 4.1 0.94 8.8 4 45-9.1 92-40 144-3.8 6.4-15 23-20 30l-1.6 2.1-0.31-3.3c-0.17-1.8-0.41-4.5-0.53-6-0.84-11-5.2-28-9.6-38-1.1-2.6-1.1-2.4 0.74-6.9 7.8-19 15-47 17-69 0.29-2.8 0.76-7.3 1-9.9 2.3-22-0.75-55-6.7-73-9.7-29-23-33-52-17-18 10-46 34-65 56-2 2.3-3.8 4.3-3.9 4.4-0.53 0.47-11 13-11 14-0.77 1.1-0.77 1.1-4.9 1e-3 -7.3-1.9-17-3.8-27-5.3-22-3.1-53-1.9-76 3-1.9 0.41-3.9 0.83-4.4 0.94s-2.8 0.68-5.1 1.3c-2.2 0.6-4.1 1-4.2 0.9-0.47-0.71-6-7.7-6.5-8.1-0.29-0.27-1.5-1.7-2.7-3.2-1.2-1.5-2.4-2.9-2.7-3.2s-2.2-2.4-4.2-4.7c-5.6-6.4-25-26-30-30-2.3-1.9-4.5-3.9-4.9-4.3-1.1-1.2-10-8.3-15-12-1.5-1.1-2.9-2.2-3.2-2.4-11-8.8-30-17-39-17-16 0.046-27 21-31 61-0.67 6.6-0.67 31 7e-3 38 2.8 29 7.5 51 16 74 0.55 1.5 1.3 3.4 1.6 4.2 1.9 4.5 1.8 4.4 0.72 6.9-4.5 10-8.8 28-9.6 39-0.16 2.2-0.44 5-0.62 6.2l-0.33 2.2-1.3-1.8zm193-13c-0.18-1.5-0.67-5.7-1.1-9.4-0.41-3.7-0.97-8.4-1.2-11-0.26-2.2-0.71-5.9-0.98-8.4-0.28-2.4-0.72-6.1-0.98-8.1-0.26-2-0.62-5.3-0.8-7.3-0.43-4.8 1.9-5-18 1.3-6.6 2.1-9.2 2.7-8.1 1.9 0.49-0.36 6.1-5 6.4-5.3 0.14-0.14 1.6-1.4 3.2-2.7 1.6-1.3 3.1-2.6 3.2-2.7 0.14-0.15 1.8-1.6 3.7-3.2s3.5-3 3.7-3.1c0.25-0.22-2-2.4-9.6-9.3-12-11-12-10-4.2-7.6 9.9 3.5 19 6.8 19 6.8 0.2 0 0.67-2.5 2.5-13 0.93-5.4 1.8-10 1.9-11 0.13-0.63 0.5-2.9 0.82-5.2 0.81-5.5 0.87-5.3 3.9 15 0.57 3.8 1.3 8 1.5 9.3s0.46 3 0.46 3.8c0 1.9 0.46 1.9 7.7-0.47 3.2-1.1 8.5-2.7 12-3.7s6.2-1.9 6.7-2c0.89-0.3 0.45 0.11-6.7 6.1-3 2.5-6.7 5.7-8.3 7.1-1.6 1.4-3.5 3-4.1 3.5-1.4 1.1-1.3 1.3 8.3 9.9 11 9.6 12 11 9.5 9.6-0.47-0.25-3.8-1.5-7.5-2.7-3.7-1.3-7.4-2.6-8.4-3-0.95-0.37-3.3-1.2-5.2-1.9l-3.5-1.2-0.53 4.5c-0.29 2.5-0.77 7-1.1 9.9-0.3 3-0.74 7.2-0.98 9.4-0.24 2.2-0.69 6.5-0.99 9.6-1.5 16-1.8 17-2.1 14z" fill="#fff" stroke-width=".49"/>
</svg>
