<?xml version="1.0" encoding="UTF-8"?>
<svg xmlns="http://www.w3.org/2000/svg" xmlns:xlink="http://www.w3.org/1999/xlink" width="4048px" height="4048px" viewBox="0 0 4048 4048" version="1.1">
<g id="surface1">
<path style=" stroke:none;fill-rule:nonzero;fill:rgb(0%,0%,0%);fill-opacity:1;" d="M 2124.0625 525.273438 C 2126.726562 525.445312 2129.390625 525.621094 2132.132812 525.800781 C 2168.433594 528.183594 2204.523438 531.253906 2240.574219 536.171875 C 2253.113281 537.898438 2253.113281 537.898438 2265.125 537.347656 C 2276.496094 537.613281 2285.574219 539.765625 2296.375 543.132812 C 2306.445312 546.042969 2316.574219 548.210938 2326.832031 550.378906 C 2375.847656 560.773438 2424.265625 572.265625 2472.433594 586.050781 C 2479.523438 588.074219 2479.523438 588.074219 2486.757812 590.136719 C 2504.605469 595.335938 2521.371094 600.242188 2537.90625 608.78125 C 2543.195312 610.8125 2548.519531 612.753906 2553.875 614.601562 C 2556.820312 615.628906 2559.765625 616.65625 2562.796875 617.714844 C 2565.835938 618.761719 2568.871094 619.808594 2572 620.886719 C 2578.066406 622.988281 2584.128906 625.09375 2590.191406 627.203125 C 2592.867188 628.125 2595.539062 629.046875 2598.292969 630 C 2605.109375 632.5 2605.109375 632.5 2613.015625 636.453125 C 2620.90625 639.136719 2628.8125 641.777344 2636.734375 644.359375 C 2636.734375 646.96875 2636.734375 649.578125 2636.734375 652.265625 C 2640.066406 653.289062 2643.398438 654.3125 2646.832031 655.371094 C 2661.355469 660.492188 2674.917969 666.804688 2688.617188 673.761719 C 2692.710938 675.835938 2692.710938 675.835938 2696.886719 677.953125 C 2705.847656 682.53125 2714.777344 687.15625 2723.703125 691.796875 C 2726.714844 693.351562 2729.722656 694.90625 2732.824219 696.507812 C 2809.386719 736.355469 2880.875 784.445312 2949.230469 837.042969 C 2959.402344 844.832031 2969.183594 852.09375 2980.65625 857.828125 C 2983.023438 860.839844 2985.390625 863.855469 2987.832031 866.960938 C 2996.519531 877.652344 3005.207031 885.152344 3016.078125 893.5625 C 3040.085938 912.828125 3061.835938 933.851562 3083.503906 955.691406 C 3089.855469 962.085938 3096.25 968.4375 3102.648438 974.785156 C 3128.308594 1000.410156 3151.875 1026.980469 3174.359375 1055.484375 C 3178.410156 1060.445312 3182.46875 1065.398438 3186.542969 1070.339844 C 3228.566406 1121.960938 3267.339844 1175.808594 3300.859375 1233.375 C 3303.039062 1237.101562 3303.039062 1237.101562 3305.265625 1240.90625 C 3373.402344 1358.117188 3423.808594 1482.035156 3458.984375 1612.875 C 3460.472656 1618.402344 3460.472656 1618.402344 3461.992188 1624.039062 C 3485.234375 1712.425781 3497.105469 1806.140625 3498.515625 1897.5 C 3498.597656 1901.984375 3498.675781 1906.46875 3498.761719 1911.085938 C 3504.691406 2293.472656 3390.09375 2650.601562 3142.734375 2945.078125 C 3137.871094 2951.039062 3137.871094 2951.039062 3132.914062 2957.121094 C 3107.792969 2987.558594 3080.6875 3015.746094 3052.800781 3043.660156 C 3049.292969 3047.167969 3045.785156 3050.679688 3042.171875 3054.296875 C 2986.859375 3109.144531 2925.601562 3157.085938 2862.0625 3202.03125 C 2859.804688 3203.628906 2857.550781 3205.226562 2855.222656 3206.871094 C 2692.445312 3320.941406 2503.609375 3401.050781 2308.625 3439.21875 C 2304.929688 3439.945312 2301.230469 3440.671875 2297.425781 3441.421875 C 2285.933594 3443.640625 2274.429688 3445.773438 2262.917969 3447.867188 C 2257.957031 3448.785156 2257.957031 3448.785156 2252.898438 3449.722656 C 2183.589844 3461.691406 2113.71875 3464.566406 2043.519531 3464.421875 C 2037.367188 3464.414062 2037.367188 3464.414062 2031.09375 3464.410156 C 1753.375 3463.644531 1442.789062 3390.238281 1218.15625 3220.210938 C 1210.011719 3214.15625 1201.757812 3208.332031 1193.394531 3202.585938 C 1159.523438 3179.308594 1128.75 3155.324219 1098.96875 3126.921875 C 1093.316406 3121.863281 1087.636719 3116.835938 1081.921875 3111.851562 C 1079.449219 3109.691406 1076.976562 3107.53125 1074.429688 3105.304688 C 1067.5625 3099.4375 1060.554688 3093.78125 1053.507812 3088.132812 C 1050.246094 3085.277344 1046.984375 3082.425781 1043.625 3079.484375 C 1043.625 3076.875 1043.625 3074.265625 1043.625 3071.578125 C 1041.34375 3070.601562 1039.058594 3069.621094 1036.707031 3068.613281 C 1026.511719 3062.949219 1019.664062 3056.617188 1012 3047.859375 C 1012 3045.25 1012 3042.640625 1012 3039.953125 C 1009.390625 3039.953125 1006.78125 3039.953125 1004.09375 3039.953125 C 998.9375 3034.980469 998.9375 3034.980469 992.726562 3027.601562 C 990.265625 3024.695312 987.804688 3021.789062 985.269531 3018.796875 C 982.351562 3015.34375 979.429688 3011.886719 976.421875 3008.328125 C 972.863281 3004.253906 969.292969 3000.191406 965.71875 2996.128906 C 886.441406 2905.636719 820.734375 2806.027344 774.09375 2695 C 770.550781 2687.03125 770.550781 2687.03125 762.953125 2676.265625 C 727.367188 2569.511719 727.367188 2569.511719 746.894531 2522.09375 C 758.398438 2500.4375 769.972656 2486.839844 793.589844 2478.609375 C 820.476562 2472.148438 845.671875 2472.953125 870.429688 2486.023438 C 903.46875 2510.058594 919.609375 2553.882812 936.199219 2589.84375 C 959.230469 2639.550781 984.832031 2686.445312 1015.953125 2731.609375 C 1018.519531 2735.367188 1018.519531 2735.367188 1021.136719 2739.203125 C 1032.238281 2755.386719 1043.703125 2771.257812 1055.484375 2786.953125 C 1058.042969 2790.367188 1058.042969 2790.367188 1060.652344 2793.847656 C 1087.238281 2829.0625 1115.757812 2861.960938 1146.40625 2893.6875 C 1148.773438 2896.140625 1151.140625 2898.597656 1153.582031 2901.125 C 1183.96875 2932.453125 1214.738281 2961.710938 1249.1875 2988.5625 C 1253.621094 2992.277344 1253.621094 2992.277344 1258.144531 2996.066406 C 1356.785156 3078.265625 1478.902344 3140.398438 1601.015625 3178.3125 C 1606.476562 3180.042969 1606.476562 3180.042969 1612.046875 3181.8125 C 1672.144531 3200.75 1732.632812 3215.023438 1794.71875 3225.75 C 1799.082031 3226.503906 1799.082031 3226.503906 1803.535156 3227.277344 C 1873.40625 3238.84375 1997.8125 3258.609375 2063.53125 3225.75 C 2070.023438 3225.027344 2076.535156 3224.480469 2083.050781 3224.019531 C 2105.621094 3222.113281 2128.636719 3220.0625 2150.5 3213.890625 C 2151.804688 3211.28125 2153.109375 3208.671875 2154.453125 3205.984375 C 2162.351562 3204.625 2170.261719 3203.3125 2178.171875 3202.03125 C 2220.160156 3185.96875 2271.515625 3164.828125 2292.8125 3122.96875 C 2295.007812 3111.199219 2294.4375 3103.542969 2292.8125 3091.34375 C 2287.621094 3083.835938 2287.621094 3083.835938 2280.953125 3079.484375 C 2279.648438 3076.875 2278.34375 3074.265625 2277 3071.578125 C 2239.390625 3059.042969 2196.667969 3060.070312 2157.433594 3059.023438 C 1881.023438 3051.484375 1881.023438 3051.484375 1807.320312 2974.972656 C 1782.601562 2942.945312 1778.851562 2909.671875 1782.859375 2869.96875 C 1789.59375 2835.023438 1801.789062 2808.691406 1826.34375 2783 C 1829.144531 2779.992188 1831.949219 2776.988281 1834.835938 2773.890625 C 1904.980469 2704.679688 2005.199219 2699.730469 2098.054688 2699.8125 C 2118.449219 2700.082031 2138.75 2701.304688 2159.101562 2702.578125 C 2168.261719 2703.121094 2177.421875 2703.660156 2186.578125 2704.199219 C 2200.714844 2705.046875 2214.847656 2705.90625 2228.980469 2706.777344 C 2277.605469 2709.753906 2326.113281 2712.371094 2374.839844 2712.414062 C 2380.328125 2712.421875 2380.328125 2712.421875 2385.929688 2712.429688 C 2465.394531 2711.949219 2544.882812 2694.941406 2605.109375 2640.6875 C 2646.414062 2594.539062 2662.605469 2541.140625 2660.207031 2479.597656 C 2657.628906 2450.96875 2649.660156 2424.5 2640.917969 2397.261719 C 2636.734375 2383.734375 2636.734375 2383.734375 2636.734375 2375.828125 C 2634.125 2374.523438 2631.515625 2373.21875 2628.828125 2371.875 C 2626.871094 2367.636719 2624.914062 2363.394531 2622.898438 2359.027344 C 2591.519531 2294.300781 2533.753906 2244.519531 2474.65625 2205.84375 C 2470.886719 2203.367188 2467.113281 2200.890625 2463.230469 2198.339844 C 2317.832031 2108.582031 2146.222656 2096.089844 1980.515625 2110.96875 C 1982.238281 2107.605469 1983.960938 2104.242188 1985.734375 2100.777344 C 2058.109375 1955.3125 2058.8125 1794.042969 2012.140625 1640.546875 C 2011.3125 1637.800781 2010.484375 1635.054688 2009.628906 1632.222656 C 1992.445312 1576.664062 1968.113281 1521.335938 1938.359375 1471.375 C 1923.550781 1446.425781 1917.902344 1428.804688 1919.488281 1399.898438 C 1919.640625 1394.292969 1919.640625 1394.292969 1919.792969 1388.570312 C 1920.144531 1376.363281 1920.675781 1364.167969 1921.21875 1351.96875 C 1921.507812 1343.953125 1921.785156 1335.941406 1922.050781 1327.925781 C 1922.503906 1314.621094 1922.964844 1301.316406 1923.457031 1288.011719 C 1925.171875 1240.597656 1926.476562 1193.171875 1927.566406 1145.738281 C 1927.78125 1136.699219 1928.011719 1127.660156 1928.257812 1118.617188 C 1928.605469 1105.757812 1928.894531 1092.898438 1929.171875 1080.035156 C 1929.285156 1076.214844 1929.402344 1072.394531 1929.519531 1068.457031 C 1930.066406 1038.441406 1930.5 1005.230469 1912.570312 980.128906 C 1892.277344 966.148438 1873.335938 962.25 1848.84375 965.9375 C 1762.828125 986.785156 1696.167969 1045.003906 1633.121094 1103.800781 C 1625.28125 1110.371094 1618.015625 1114.246094 1608.921875 1118.734375 C 1606.222656 1123.972656 1603.582031 1129.242188 1601.015625 1134.546875 C 1597.101562 1135.851562 1593.1875 1137.15625 1589.15625 1138.5 C 1586.464844 1143.742188 1583.839844 1149.019531 1581.25 1154.3125 C 1575.675781 1160.421875 1569.890625 1166.34375 1563.953125 1172.101562 C 1560.90625 1175.078125 1557.859375 1178.054688 1554.722656 1181.121094 C 1551.734375 1184.015625 1548.75 1186.910156 1545.671875 1189.890625 C 1542.929688 1192.785156 1540.1875 1195.679688 1537.363281 1198.660156 C 1528.6875 1206.800781 1522.203125 1209.609375 1510.238281 1209.742188 C 1507.285156 1209.554688 1504.332031 1209.371094 1501.292969 1209.175781 C 1497.917969 1208.984375 1494.542969 1208.792969 1491.066406 1208.59375 C 1487.398438 1208.375 1483.730469 1208.152344 1479.953125 1207.925781 C 1344.808594 1201.09375 1215.910156 1209.492188 1087.851562 1255.816406 C 1037.496094 1273.675781 1037.496094 1273.675781 1016.285156 1266.332031 C 1000.265625 1257.675781 986.957031 1245.753906 973.457031 1233.621094 C 946.132812 1209.660156 916.421875 1189.679688 886.242188 1169.523438 C 873.617188 1161.066406 861.585938 1152.214844 849.921875 1142.453125 C 888.167969 1036.378906 1020.605469 920.421875 1106.875 853.875 C 1119.082031 843.691406 1131.203125 833.5 1142.453125 822.25 C 1148.039062 818.492188 1153.628906 814.746094 1159.257812 811.058594 C 1166.574219 806.167969 1173.703125 801.070312 1180.828125 795.90625 C 1216.792969 769.902344 1253.378906 746.125 1292.023438 724.300781 C 1300.699219 719.398438 1309.339844 714.441406 1317.980469 709.476562 C 1375.566406 676.664062 1434.605469 648.675781 1496.257812 624.347656 C 1500.203125 622.785156 1504.148438 621.226562 1508.210938 619.621094 C 1511.890625 618.199219 1515.570312 616.777344 1519.359375 615.3125 C 1522.628906 614.050781 1525.898438 612.785156 1529.265625 611.484375 C 1537.765625 608.78125 1537.765625 608.78125 1549.625 608.78125 C 1550.929688 606.171875 1552.234375 603.5625 1553.578125 600.875 C 1561.808594 598.066406 1561.808594 598.066406 1572.601562 595.4375 C 1613.484375 585.113281 1613.484375 585.113281 1652.40625 569.25 C 1658.558594 567.96875 1664.742188 566.835938 1670.9375 565.777344 C 1688.6875 562.65625 1706.378906 559.3125 1724.054688 555.800781 C 1856.792969 529.757812 1988.757812 516.117188 2124.0625 525.273438 Z M 2124.0625 525.273438 "/>
<path style=" stroke:none;fill-rule:nonzero;fill:rgb(0%,0%,0%);fill-opacity:1;" d="M 1794.71875 1142.453125 C 1815.710938 1155.8125 1818.234375 1173.722656 1823.628906 1196.484375 C 1827.925781 1217.320312 1830.398438 1238.164062 1832.519531 1259.316406 C 1833.007812 1263.972656 1833.5 1268.625 1834.003906 1273.421875 C 1838.59375 1319.515625 1841.132812 1365.722656 1843.207031 1411.992188 C 1845.25 1455.753906 1849.484375 1489.675781 1872.296875 1527.636719 C 1951.207031 1664.882812 1986.304688 1821.28125 1944.675781 1976.933594 C 1922.925781 2053.339844 1885.71875 2123.148438 1840.425781 2188.054688 C 1838.371094 2191.015625 1836.3125 2193.976562 1834.191406 2197.027344 C 1831.292969 2201.085938 1831.292969 2201.085938 1828.335938 2205.226562 C 1826.617188 2207.640625 1824.898438 2210.050781 1823.125 2212.539062 C 1821.578125 2214.242188 1820.03125 2215.945312 1818.4375 2217.703125 C 1815.828125 2217.703125 1813.21875 2217.703125 1810.53125 2217.703125 C 1807.921875 2224.226562 1805.3125 2230.75 1802.625 2237.46875 C 1809.015625 2236.09375 1809.015625 2236.09375 1815.535156 2234.691406 C 1831.609375 2231.238281 1847.6875 2227.8125 1863.765625 2224.390625 C 1870.675781 2222.917969 1877.582031 2221.4375 1884.488281 2219.953125 C 2072.597656 2179.480469 2260.511719 2185.050781 2428.375 2288.4375 C 2444.902344 2299.152344 2459.804688 2311.558594 2474.65625 2324.4375 C 2477.015625 2326.230469 2479.375 2328.023438 2481.804688 2329.875 C 2530.871094 2367.945312 2560.246094 2424.558594 2572.046875 2484.492188 C 2574.265625 2505.910156 2570.839844 2525.085938 2565.578125 2545.8125 C 2564.980469 2548.671875 2564.386719 2551.53125 2563.769531 2554.476562 C 2556.5 2578.691406 2522.675781 2597.082031 2502.328125 2609.0625 C 2451.054688 2632.675781 2395.800781 2629.757812 2340.742188 2625.863281 C 2335.148438 2625.5 2329.554688 2625.136719 2323.960938 2624.777344 C 2292.210938 2622.699219 2260.492188 2620.273438 2228.773438 2617.742188 C 2003.804688 2594.9375 2003.804688 2594.9375 1801.097656 2678.953125 C 1755.65625 2718.28125 1727.792969 2761.695312 1715.148438 2820.910156 C 1710.609375 2833.46875 1707.019531 2838.671875 1695.890625 2846.25 C 1670.417969 2850.976562 1649.457031 2843.789062 1626.710938 2832.90625 C 1623.664062 2831.5 1620.621094 2830.089844 1617.480469 2828.636719 C 1493.128906 2769.75 1334.238281 2660.5 1277.136719 2529.476562 C 1271.761719 2520.097656 1266.890625 2518.449219 1257.09375 2514.1875 C 1254.597656 2512.445312 1252.097656 2510.707031 1249.523438 2508.914062 C 1219.800781 2488.476562 1187.785156 2481.492188 1153.207031 2473.371094 C 1135.847656 2469.273438 1118.554688 2464.917969 1101.253906 2460.574219 C 1097.898438 2459.734375 1094.539062 2458.894531 1091.082031 2458.027344 C 977.339844 2429.371094 881.570312 2375.007812 794.578125 2296.765625 C 791.460938 2294.027344 788.339844 2291.292969 785.128906 2288.472656 C 741.648438 2247.976562 701.839844 2192.199219 675.984375 2138.640625 C 675.984375 2136.03125 675.984375 2133.421875 675.984375 2130.734375 C 672.070312 2130.734375 668.15625 2130.734375 664.125 2130.734375 C 663.785156 2127.617188 663.441406 2124.496094 663.089844 2121.285156 C 659.28125 2102.664062 652.222656 2086.042969 645.101562 2068.472656 C 583.765625 1911.632812 597.144531 1740.027344 663.21875 1586.765625 C 666.617188 1579.042969 670.070312 1571.34375 673.558594 1563.660156 C 675.664062 1559.03125 677.769531 1554.398438 679.9375 1549.625 C 682.003906 1545.605469 684.070312 1541.589844 686.203125 1537.449219 C 694.027344 1519.011719 693.210938 1501.101562 692.816406 1481.355469 C 692.789062 1477.457031 692.761719 1473.558594 692.730469 1469.542969 C 692.667969 1461.238281 692.578125 1452.933594 692.464844 1444.628906 C 692.175781 1423.125 692.089844 1401.621094 691.980469 1380.121094 C 691.957031 1375.921875 691.929688 1371.722656 691.902344 1367.398438 C 691.730469 1335.539062 692.0625 1303.761719 693.28125 1271.917969 C 693.402344 1268.152344 693.523438 1264.386719 693.652344 1260.507812 C 697.003906 1183.160156 697.003906 1183.160156 715.515625 1158.265625 C 731.5 1148.238281 739.492188 1145.734375 758.167969 1149.125 C 774.824219 1153.734375 788.636719 1161 803.226562 1170.125 C 807.046875 1172.472656 807.046875 1172.472656 810.945312 1174.867188 C 856.195312 1203.207031 896.535156 1238.128906 936.890625 1272.90625 C 940.933594 1276.347656 940.933594 1276.347656 945.058594 1279.855469 C 958.109375 1291.074219 970.65625 1302.632812 982.921875 1314.707031 C 985.546875 1317.25 988.167969 1319.796875 990.871094 1322.414062 C 996.164062 1327.558594 1001.40625 1332.753906 1006.601562 1338 C 1009.050781 1340.367188 1011.5 1342.734375 1014.023438 1345.175781 C 1016.203125 1347.335938 1018.382812 1349.5 1020.628906 1351.730469 C 1027.828125 1356.863281 1027.828125 1356.863281 1037.457031 1355.03125 C 1046.914062 1352.167969 1056.007812 1349.054688 1065.167969 1345.359375 C 1068.480469 1344.046875 1071.792969 1342.730469 1075.210938 1341.378906 C 1078.730469 1339.980469 1082.25 1338.585938 1085.875 1337.144531 C 1232.992188 1280.359375 1393.976562 1271.386719 1547.355469 1310.644531 C 1558.21875 1312.558594 1563.105469 1312.230469 1573.34375 1308.484375 C 1579.980469 1302.46875 1579.980469 1302.46875 1585.945312 1294.726562 C 1723.550781 1130.367188 1723.550781 1130.367188 1794.71875 1142.453125 Z M 1752.222656 1809.542969 C 1729.523438 1833.570312 1707.53125 1846.253906 1674.148438 1847.839844 C 1643.796875 1846.132812 1620.390625 1837.707031 1596.320312 1819.179688 C 1583.796875 1809.542969 1583.796875 1809.542969 1568.941406 1805.714844 C 1560.316406 1807.148438 1560.316406 1807.148438 1549.625 1814.484375 C 1541.984375 1824.882812 1541.984375 1824.882812 1541.71875 1838.203125 C 1553.796875 1868.945312 1578.082031 1885.3125 1607.4375 1898.734375 C 1654.851562 1916.042969 1702.851562 1910.992188 1748.269531 1890.582031 C 1771.167969 1878.105469 1796.894531 1859.0625 1806.578125 1834.25 C 1808.519531 1820.195312 1809.296875 1807.460938 1802.132812 1794.71875 C 1780.027344 1782.929688 1766.96875 1792.421875 1752.222656 1809.542969 Z M 980.621094 1832.027344 C 971.410156 1841.773438 971.410156 1841.773438 970.246094 1855.5 C 974.347656 1881.9375 990.609375 1897.699219 1010.394531 1914.347656 C 1058.515625 1949.109375 1108.324219 1959.632812 1166.757812 1951.007812 C 1210.796875 1941.238281 1250.996094 1923.894531 1276.859375 1885.640625 C 1283.917969 1873.660156 1284.773438 1870.085938 1284.273438 1855.5 C 1282.15625 1842.242188 1282.15625 1842.242188 1274.140625 1836.226562 C 1261.515625 1833.496094 1253.679688 1834.40625 1241.28125 1838.203125 C 1234.511719 1844.605469 1227.953125 1851.230469 1221.515625 1857.96875 C 1192.351562 1881.148438 1162.476562 1895.429688 1124.664062 1893.300781 C 1083.769531 1887.671875 1059.554688 1872.59375 1030.730469 1843.113281 C 1014.742188 1830.019531 999.929688 1822.578125 980.621094 1832.027344 Z M 980.621094 1832.027344 "/>
<path style=" stroke:none;fill-rule:nonzero;fill:rgb(7.058824%,7.450981%,7.450981%);fill-opacity:1;" d="M 2356.0625 2245.375 C 2361.28125 2246.679688 2366.5 2247.984375 2371.875 2249.328125 C 2367.960938 2251.285156 2367.960938 2251.285156 2363.96875 2253.28125 C 2361.359375 2250.671875 2358.75 2248.0625 2356.0625 2245.375 Z M 2356.0625 2245.375 "/>
<path style=" stroke:none;fill-rule:nonzero;fill:rgb(7.843138%,7.843138%,7.843138%);fill-opacity:1;" d="M 1134.546875 1940.984375 C 1135.851562 1943.59375 1137.15625 1946.203125 1138.5 1948.890625 C 1133.28125 1947.585938 1128.0625 1946.28125 1122.6875 1944.9375 C 1126.601562 1943.632812 1130.515625 1942.328125 1134.546875 1940.984375 Z M 1134.546875 1940.984375 "/>
<path style=" stroke:none;fill-rule:nonzero;fill:rgb(7.450981%,7.450981%,7.058824%);fill-opacity:1;" d="M 2000.28125 1624.734375 C 2004.195312 1626.691406 2004.195312 1626.691406 2008.1875 1628.6875 C 2006.882812 1632.601562 2005.578125 1636.515625 2004.234375 1640.546875 C 2002.929688 1635.328125 2001.625 1630.109375 2000.28125 1624.734375 Z M 2000.28125 1624.734375 "/>
<path style=" stroke:none;fill-rule:nonzero;fill:rgb(8.235294%,8.235294%,7.450981%);fill-opacity:1;" d="M 2027.953125 1719.609375 C 2031.90625 1735.421875 2031.90625 1735.421875 2031.90625 1735.421875 Z M 2027.953125 1719.609375 "/>
<path style=" stroke:none;fill-rule:nonzero;fill:rgb(7.058824%,6.666667%,7.450981%);fill-opacity:1;" d="M 1913.3125 1395.453125 C 1917.265625 1411.265625 1917.265625 1411.265625 1917.265625 1411.265625 Z M 1913.3125 1395.453125 "/>
<path style=" stroke:none;fill-rule:nonzero;fill:rgb(7.058824%,6.666667%,7.058824%);fill-opacity:1;" d="M 1344.0625 1280.8125 C 1359.875 1284.765625 1359.875 1284.765625 1359.875 1284.765625 Z M 1344.0625 1280.8125 "/>
<path style=" stroke:none;fill-rule:nonzero;fill:rgb(7.450981%,7.843138%,7.058824%);fill-opacity:1;" d="M 1664.265625 3194.125 C 1676.125 3198.078125 1676.125 3198.078125 1676.125 3198.078125 Z M 1664.265625 3194.125 "/>
<path style=" stroke:none;fill-rule:nonzero;fill:rgb(7.058824%,7.058824%,7.058824%);fill-opacity:1;" d="M 1565.4375 3162.5 C 1577.296875 3166.453125 1577.296875 3166.453125 1577.296875 3166.453125 Z M 1565.4375 3162.5 "/>
<path style=" stroke:none;fill-rule:nonzero;fill:rgb(8.235294%,8.627451%,7.843138%);fill-opacity:1;" d="M 2565.578125 2288.859375 C 2569.492188 2290.816406 2569.492188 2290.816406 2573.484375 2292.8125 C 2569.570312 2294.769531 2569.570312 2294.769531 2565.578125 2296.765625 C 2565.578125 2294.15625 2565.578125 2291.546875 2565.578125 2288.859375 Z M 2565.578125 2288.859375 "/>
<path style=" stroke:none;fill-rule:nonzero;fill:rgb(8.235294%,7.843138%,7.843138%);fill-opacity:1;" d="M 1138.5 1308.484375 C 1150.359375 1312.4375 1150.359375 1312.4375 1150.359375 1312.4375 Z M 1138.5 1308.484375 "/>
<path style=" stroke:none;fill-rule:nonzero;fill:rgb(8.627451%,8.627451%,9.411765%);fill-opacity:1;" d="M 1996.328125 3466.890625 C 2004.234375 3470.84375 2004.234375 3470.84375 2004.234375 3470.84375 Z M 1996.328125 3466.890625 "/>
<path style=" stroke:none;fill-rule:nonzero;fill:rgb(9.411765%,9.411765%,9.411765%);fill-opacity:1;" d="M 1585.203125 3399.6875 C 1593.109375 3403.640625 1593.109375 3403.640625 1593.109375 3403.640625 Z M 1585.203125 3399.6875 "/>
<path style=" stroke:none;fill-rule:nonzero;fill:rgb(7.450981%,7.058824%,7.058824%);fill-opacity:1;" d="M 1826.34375 3225.75 C 1834.25 3229.703125 1834.25 3229.703125 1834.25 3229.703125 Z M 1826.34375 3225.75 "/>
<path style=" stroke:none;fill-rule:nonzero;fill:rgb(8.235294%,8.235294%,7.450981%);fill-opacity:1;" d="M 2099.109375 3059.71875 C 2107.015625 3063.671875 2107.015625 3063.671875 2107.015625 3063.671875 Z M 2099.109375 3059.71875 "/>
<path style=" stroke:none;fill-rule:nonzero;fill:rgb(7.058824%,7.058824%,7.450981%);fill-opacity:1;" d="M 1901.453125 2719.75 C 1909.359375 2723.703125 1909.359375 2723.703125 1909.359375 2723.703125 Z M 1901.453125 2719.75 "/>
<path style=" stroke:none;fill-rule:nonzero;fill:rgb(7.058824%,7.058824%,7.058824%);fill-opacity:1;" d="M 2415.359375 2277 C 2423.265625 2280.953125 2423.265625 2280.953125 2423.265625 2280.953125 Z M 2415.359375 2277 "/>
<path style=" stroke:none;fill-rule:nonzero;fill:rgb(6.666667%,7.058824%,6.666667%);fill-opacity:1;" d="M 2269.09375 2213.75 C 2277 2217.703125 2277 2217.703125 2277 2217.703125 Z M 2269.09375 2213.75 "/>
<path style=" stroke:none;fill-rule:nonzero;fill:rgb(8.627451%,8.627451%,9.019608%);fill-opacity:1;" d="M 2182.125 2110.96875 C 2190.03125 2114.921875 2190.03125 2114.921875 2190.03125 2114.921875 Z M 2182.125 2110.96875 "/>
<path style=" stroke:none;fill-rule:nonzero;fill:rgb(8.235294%,8.235294%,8.235294%);fill-opacity:1;" d="M 2154.453125 2107.015625 C 2162.359375 2110.96875 2162.359375 2110.96875 2162.359375 2110.96875 Z M 2154.453125 2107.015625 "/>
<path style=" stroke:none;fill-rule:nonzero;fill:rgb(7.450981%,7.450981%,7.450981%);fill-opacity:1;" d="M 1201.75 1929.125 C 1209.65625 1933.078125 1209.65625 1933.078125 1209.65625 1933.078125 Z M 1201.75 1929.125 "/>
<path style=" stroke:none;fill-rule:nonzero;fill:rgb(7.058824%,7.843138%,7.450981%);fill-opacity:1;" d="M 1660.3125 1901.453125 C 1668.21875 1905.40625 1668.21875 1905.40625 1668.21875 1905.40625 Z M 1660.3125 1901.453125 "/>
<path style=" stroke:none;fill-rule:nonzero;fill:rgb(8.235294%,7.843138%,7.843138%);fill-opacity:1;" d="M 1929.125 1474.515625 C 1937.03125 1478.46875 1937.03125 1478.46875 1937.03125 1478.46875 Z M 1929.125 1474.515625 "/>
<path style=" stroke:none;fill-rule:nonzero;fill:rgb(7.450981%,7.450981%,7.058824%);fill-opacity:1;" d="M 1075.25 1332.203125 C 1083.15625 1336.15625 1083.15625 1336.15625 1083.15625 1336.15625 Z M 1075.25 1332.203125 "/>
<path style=" stroke:none;fill-rule:nonzero;fill:rgb(6.666667%,7.058824%,6.666667%);fill-opacity:1;" d="M 1332.203125 1280.8125 C 1340.109375 1284.765625 1340.109375 1284.765625 1340.109375 1284.765625 Z M 1332.203125 1280.8125 "/>
<path style=" stroke:none;fill-rule:nonzero;fill:rgb(9.803922%,9.411765%,9.019608%);fill-opacity:1;" d="M 810.390625 1170.125 C 818.296875 1174.078125 818.296875 1174.078125 818.296875 1174.078125 Z M 810.390625 1170.125 "/>
<path style=" stroke:none;fill-rule:nonzero;fill:rgb(9.803922%,10.588235%,9.803922%);fill-opacity:1;" d="M 1209.65625 766.90625 C 1217.5625 770.859375 1217.5625 770.859375 1217.5625 770.859375 Z M 1209.65625 766.90625 "/>
<path style=" stroke:none;fill-rule:nonzero;fill:rgb(9.411765%,9.803922%,9.411765%);fill-opacity:1;" d="M 1458.703125 632.5 C 1466.609375 636.453125 1466.609375 636.453125 1466.609375 636.453125 Z M 1458.703125 632.5 "/>
<path style=" stroke:none;fill-rule:nonzero;fill:rgb(10.588235%,10.980392%,10.588235%);fill-opacity:1;" d="M 2561.625 612.734375 C 2569.53125 616.6875 2569.53125 616.6875 2569.53125 616.6875 Z M 2561.625 612.734375 "/>
<path style=" stroke:none;fill-rule:nonzero;fill:rgb(10.588235%,10.980392%,10.980392%);fill-opacity:1;" d="M 1612.875 577.15625 C 1620.78125 581.109375 1620.78125 581.109375 1620.78125 581.109375 Z M 1612.875 577.15625 "/>
</g>
</svg>
