<svg width="512" height="512" version="1.1" viewBox="0 0 512 512" xmlns="http://www.w3.org/2000/svg">
 <path d="m252 489c-0.955-0.538-2.07-2.26-3.78-5.83-2.83-5.92-4.25-7.17-9.64-8.51-5.6-1.39-7.28-3.77-5.05-7.13 2.76-4.17 11.3-5.67 18.5-3.24 3.57 1.22 3.57 1.22 7.07 0.035 10.2-3.45 22.3 1.3 18.9 7.45-0.78 1.45-1.32 1.75-4.89 2.7-6.25 1.66-8.51 3.74-10.9 10-1.8 4.8-6.27 6.76-10.3 4.51zm-73.8-66.9c-0.135-0.137-1.95-0.378-4.02-0.536-3.77-0.286-4.61-0.419-8.79-1.39-20.6-4.78-32.6-18.5-37.7-42.6-0.912-4.39-1.55-13.7-0.959-14.1 0.908-0.546 13-2.8 17.7-3.31 2.71-0.293 5.86-0.632 7.01-0.755l2.08-0.222-2.12 3.1c-9.35 13.7-7.84 32.1 3.59 43.8 19.1 19.5 51.5 6.28 52.6-21.4 0.256-6.28 0.331-6.32 2.95-1.72 4.43 7.79 6.85 15.4 8.26 26.1 1.12 8.5 1.12 8.53-1.37 9.18-3.26 0.855-9.52 2.06-14.7 2.82-4.68 0.694-24.2 1.54-24.6 1.07zm139-0.156c-8-0.732-19.2-2.53-23.5-3.78-2.2-0.635-2.22-0.798-1.11-9.28 1.4-10.6 4.22-19.3 8.75-26.8l2.08-3.46 0.288 5.67c1.63 32.1 41.7 42.7 57.8 15.3 6.7-11.4 6.02-26.1-1.74-37.6l-1.91-2.82 2.09 0.223c1.15 0.123 4.31 0.463 7.02 0.756 4.73 0.511 16.8 2.77 17.7 3.31 3.38 2.03-4.16 29.2-10.7 38.6-5.77 8.26-17 16.1-25.1 17.4-0.766 0.128-2.1 0.449-2.96 0.712s-2.67 0.637-4.03 0.83c-1.35 0.193-3.02 0.442-3.69 0.553-1.76 0.288-18.6 0.589-20.9 0.374zm-255-59.3c-8.74-12.1-13.9-19.6-19.9-29.1-4.28-6.78-10.7-18.4-15.5-28.1-5.46-11-6.59-13.6-9.69-21.6-1.23-3.19-2.47-6.34-2.75-7.01-0.62-1.5-3.38-9.89-4.78-14.5-2.52-8.38-5.02-19.4-6.42-28.3-2.96-18.8-3.27-35.8-0.986-53 0.29-2.17 0.623-4.7 0.741-5.64 3.01-23.8 14.7-51.7 30.4-72.6 21.4-28.5 55.2-49.3 89.6-54.9 7.72-1.27 9.88-1.52 17.6-2.07 6.39-0.455 9.73-0.446 15.5 0.0391 4.06 0.34 7.71 0.606 8.11 0.59 2.01-0.0785 11.1 1.43 19 3.15 23 5.02 43.2 13.7 67.2 28.8 2.02 1.27 3.15 1.65 4.93 1.64 2.3-0.0081 3.26-0.412 7.48-3.12 16.9-10.8 38.7-20.7 56.4-25.4 7.61-2.02 24.6-5.19 27.3-5.09 0.406 0.0138 4.06-0.253 8.11-0.594 73.3-6.15 145 54.9 153 131 0.157 1.41 0.369 2.69 0.473 2.86 0.104 0.168 0.526 4.15 0.938 8.84 3.99 45.5-9.07 92.3-40.3 144-3.83 6.38-15 22.7-20.4 29.9l-1.56 2.07-0.313-3.3c-0.172-1.82-0.409-4.52-0.525-6.01-0.835-10.7-5.16-27.9-9.58-38.1-1.11-2.57-1.13-2.41 0.737-6.93 7.78-18.9 14.7-46.9 16.9-68.7 0.294-2.84 0.755-7.32 1.02-9.94 2.28-22.2-0.75-55.4-6.69-73.2-9.69-29-23-33.4-51.7-16.9-18.1 10.4-45.7 34.3-64.8 56.2-2.01 2.3-3.79 4.3-3.94 4.43-0.527 0.465-10.7 12.7-11.5 13.8-0.769 1.1-0.769 1.1-4.86 1e-3 -7.26-1.94-17.1-3.84-27.5-5.26-22.5-3.1-53.3-1.86-76.1 3.05-1.9 0.409-3.89 0.83-4.43 0.936s-2.82 0.682-5.07 1.28c-2.25 0.598-4.14 1-4.21 0.903-0.47-0.714-6.04-7.67-6.46-8.07-0.287-0.271-1.5-1.71-2.7-3.2-1.2-1.49-2.42-2.93-2.71-3.2s-2.18-2.38-4.2-4.68c-5.61-6.4-25.4-26.2-30.1-30.2-2.3-1.94-4.52-3.88-4.93-4.33-1.08-1.18-9.96-8.26-14.8-11.8-1.49-1.09-2.93-2.15-3.2-2.38-10.8-8.85-29.8-17-39.4-17-16.2 0.0463-26.7 21-30.8 61.4-0.673 6.6-0.669 31.3 7e-3 38.3 2.85 29.3 7.53 50.7 16.3 74.4 0.553 1.49 1.28 3.37 1.61 4.19 1.86 4.53 1.85 4.36 0.723 6.93-4.45 10.2-8.82 27.9-9.61 39-0.158 2.22-0.437 5.02-0.619 6.22l-0.331 2.17-1.29-1.78zm193-12.9c-0.18-1.49-0.667-5.7-1.08-9.36-0.414-3.66-0.969-8.42-1.23-10.6-0.264-2.17-0.706-5.94-0.982-8.37-0.276-2.44-0.718-6.1-0.983-8.13-0.265-2.03-0.624-5.31-0.798-7.28-0.428-4.85 1.92-5.02-18.1 1.29-6.62 2.08-9.16 2.68-8.1 1.9 0.493-0.362 6.14-5.05 6.36-5.28 0.135-0.142 1.58-1.36 3.2-2.71 1.63-1.35 3.07-2.58 3.2-2.73 0.135-0.151 1.8-1.57 3.69-3.15s3.55-2.96 3.67-3.07c0.254-0.218-1.95-2.36-9.58-9.3-12.1-11-11.7-10.2-4.15-7.55 9.88 3.53 19.3 6.84 19.4 6.84 0.196 0 0.667-2.49 2.48-13.1 0.927-5.42 1.79-10.4 1.92-11 0.13-0.625 0.502-2.95 0.825-5.16 0.811-5.55 0.871-5.32 3.9 14.7 0.574 3.79 1.25 7.96 1.5 9.26s0.46 3.02 0.46 3.82c0 1.91 0.457 1.89 7.67-0.468 3.24-1.06 8.54-2.73 11.8-3.72s6.24-1.91 6.65-2.05c0.894-0.304 0.449 0.107-6.65 6.14-2.98 2.53-6.73 5.75-8.34 7.14-1.61 1.39-3.45 2.95-4.1 3.46-1.43 1.13-1.26 1.33 8.25 9.91 10.7 9.63 12 11 9.48 9.64-0.47-0.254-3.85-1.49-7.51-2.75-3.66-1.26-7.43-2.59-8.37-2.96-0.948-0.372-3.3-1.23-5.24-1.9l-3.51-1.23-0.531 4.52c-0.292 2.49-0.775 6.96-1.07 9.94-0.297 2.98-0.736 7.19-0.975 9.36-0.239 2.17-0.685 6.49-0.991 9.61-1.53 15.5-1.78 17.2-2.14 14.3z" fill="#fff" stroke-width=".493"/>
</svg>
