<?xml version="1.0" encoding="UTF-8" standalone="no"?>
<!-- Created with Inkscape (http://www.inkscape.org/) -->

<svg
   version="1.1"
   id="svg2"
   width="621"
   height="511"
   viewBox="0 0 621 511"
   xmlns="http://www.w3.org/2000/svg"
   xmlns:svg="http://www.w3.org/2000/svg">
  <defs
     id="defs6" />
  <g
     id="g8">
    <path
       style="fill:#000000"
       d="M 116.48761,506.97995 C 114.70601,504.09726 132.77727,473.589 144.01954,460.5 154.16056,448.69314 153.72898,445.6179 140.01978,432 133.85157,425.87287 123,408.98201 123,405.50811 c 0,-0.74506 -1.11245,-2.67673 -2.47212,-4.2926 -1.35966,-1.61587 -2.18466,-3.2254 -1.83333,-3.57673 C 119.04588,397.28745 117.66921,397 115.63528,397 c -2.26336,0 -3.9084,-0.54815 -4.24023,-1.41291 C 110.51441,393.2922 87,400.45045 87,403.01342 87,403.55604 86.325,404 85.5,404 c -0.825,0 -1.5,0.54643 -1.5,1.21429 0,0.7803 -0.584961,0.62932 -1.636744,-0.42246 -3.408877,-3.40888 3.789373,-8.26646 22.030714,-14.86695 l 8.30449,-3.00492 -0.14405,-7.20998 c -0.10606,-5.30907 -0.86973,-8.99983 -2.89651,-13.99872 -1.51386,-3.73381 -3.53511,-10.57523 -4.49168,-15.20316 -2.1626,-10.4628 -1.62643,-10.04033 -10.361998,-8.1646 -10.157049,2.18096 -34.285703,4.86057 -40.304222,4.47599 -8.409123,-0.53733 -7.15933,-3.96159 2,-5.47972 9.819402,-1.62754 36.472185,-7.91464 40.47301,-9.54715 l 3.33303,-1.36002 -0.17082,-32.9663 c -0.094,-18.13146 -0.450304,-36.04787 -0.791885,-39.81423 l -0.621056,-6.84793 -10.111139,0.71782 c -5.908778,0.41948 -12.100707,1.49922 -14.89816,2.59793 C 71.080118,255.15395 67.995079,256 66.857336,256 c -1.137743,0 -3.339265,1.06917 -4.892271,2.37594 C 51.443825,267.22898 31,258.42099 31,245.035 31,242.34568 37.711731,235 40.168957,235 c 6.246594,0 16.250451,3.38412 19.989408,6.76204 l 3.928922,3.54954 3.036144,-2.24472 c 2.623267,-1.93946 3.807219,-2.15842 8.706356,-1.61018 3.118617,0.349 8.10094,0.16273 11.071828,-0.41394 3.857237,-0.74871 7.249607,-0.72666 11.865146,0.0771 7.356269,1.28104 7.636559,1.10269 8.655689,-5.50774 0.34868,-2.26165 1.35705,-6.3237 2.24081,-9.02676 1.93149,-5.90756 1.41974,-6.50763 -8.1278,-9.53045 C 98.215958,216.00391 88.975,212.8274 81,209.99597 c -7.975,-2.83142 -20.8,-7.27258 -28.5,-9.86924 -7.7,-2.59665 -15.215467,-5.52475 -16.701037,-6.50689 -3.165755,-2.09293 -5.688465,-1.55792 -10.722807,2.27405 -6.515841,4.95963 -17.527435,2.33323 -22.1754342,-5.28912 -9.0424229,-14.82885 10.8850552,-24.15295 23.5233472,-11.00661 4.782637,4.9749 5.740416,5.47995 16.575931,8.74076 6.325,1.90344 15.55,4.84723 20.5,6.54178 4.95,1.69455 15.075,4.85642 22.5,7.02639 7.425,2.16996 16.84794,5.14885 20.93986,6.61974 8.62558,3.10058 8.95529,2.93268 11.5769,-5.89522 l 1.45608,-4.90315 -4.39861,-7.11423 c -13.06543,-21.1318 -19.78514,-61.27432 -13.81221,-82.51206 0.86656,-3.08119 1.55924,-6.95217 1.53929,-8.60217 -0.092,-7.611327 5.73738,-27.430052 9.26847,-31.510841 0.71903,-0.830962 2.11983,-4.205962 3.1129,-7.5 1.57789,-5.233929 3.00425,-7.22156 11.31144,-15.762404 l 9.50588,-9.773244 7.83797,-1.476756 c 15.66734,-2.951892 25.60796,-0.605572 41.16203,9.715627 5.5,3.649628 14.5,8.969482 20,11.821896 6.60419,3.42507 11.52811,6.800999 14.5,9.941454 2.475,2.615385 6.6482,6.434167 9.27377,8.486182 2.62557,2.052014 5.71385,5.604544 6.86285,7.894511 4.85845,9.682957 7.89283,10.384689 17.53532,4.055222 9.20151,-6.039996 19.36903,-10.391018 24.29985,-10.398719 2.49051,-0.0039 8.80321,-0.702763 14.02821,-1.553054 5.225,-0.85029 15.25599,-1.919095 22.29109,-2.375122 14.92735,-0.967618 14.8751,-0.937637 19.65694,-11.279447 11.47338,-24.813757 14.2424,-29.938164 18.12252,-33.537908 2.2216,-2.061069 5.60888,-5.859 7.52729,-8.439848 C 365.38477,10.022338 375.12983,3 380.14662,3 c 12.46188,0 20.74685,2.9175749 23.45407,8.259418 0.90328,1.78232 3.30417,5.715582 5.33533,8.740582 2.03116,3.025 5.44998,9.1 7.59737,13.5 8.55134,17.521688 10.403,18.771912 17.98379,12.142539 5.86695,-5.130633 13.68961,-9.284915 21.13606,-11.22447 2.9401,-0.765798 8.48466,-2.973145 12.32123,-4.905215 7.51382,-3.783895 12.97652,-4.481757 15.09557,-1.928463 0.72321,0.871415 3.22862,2.901049 5.56758,4.510297 4.13842,2.847302 6.84005,7.011687 15.3219,23.617632 1.46427,2.866776 3.45307,6.08611 4.41957,7.154075 0.96649,1.067965 2.84582,5.922421 4.17628,10.78768 4.35946,15.941817 6.23647,20.03521 9.78522,21.339713 23.45756,8.622882 36.89206,26.448982 41.78142,55.439382 3.46134,20.52324 0.80743,29.32219 -16.57835,54.96493 -7.78843,11.48737 -7.67338,9.96291 -1.97238,26.13472 2.5142,7.13195 5.49818,15.66718 6.63107,18.96718 1.13289,3.3 2.43802,6.41471 2.90031,6.92158 0.49601,0.54386 8.74208,-3.04038 20.11892,-8.74491 C 595.72583,238.39552 601,236.51079 601,239.46471 c 0,0.94309 -0.95851,2.49086 -2.13001,3.43949 -2.11589,1.71333 -2.0993,1.73651 2.5,3.493 3.39952,1.29829 4.63001,2.3062 4.63001,3.7925 0,1.34381 -0.48036,1.83995 -1.42899,1.47592 -6.66638,-2.55813 -13.26494,-1.0518 -20.89874,4.77078 -1.84858,1.40998 -3.76858,2.56797 -4.26666,2.57331 -0.49809,0.005 -2.75212,1.46783 -5.00896,3.25 -2.25684,1.78216 -7.09055,4.81529 -10.74156,6.74029 -7.58474,3.99906 -7.49913,3.71866 -4.12246,13.50175 1.54531,4.47716 2.81229,10.97387 3.25,16.66506 l 0.71737,9.32737 7.5,-0.49709 c 25.04023,-1.65964 49.5,0.81248 49.5,5.00291 0,1.27547 -2.17044,1.46385 -14.5,1.2585 -13.66146,-0.22754 -14.30837,-0.15358 -11.18636,1.27883 6.0928,2.79545 4.257,6.9935 -2.99598,6.85112 l -5.68234,-0.11156 1.52636,2.32951 c 2.51061,3.83169 1.08425,4.89214 -2.51106,1.86688 -3.54262,-2.98091 -7.2677,-3.927 -19.68651,-4.99992 -9.98411,-0.86257 -9.69926,-1.19328 -11.71957,13.60636 -1.77427,12.99732 -5.68166,25.82864 -9.31939,30.60356 -1.33383,1.7508 -2.42515,3.65416 -2.42515,4.22967 0,2.16713 16.98564,8.64899 33,12.59308 7.40377,1.82343 18.0026,6.73438 20.50725,9.50199 3.19555,3.53103 0.65405,3.8322 -8.25196,0.97787 -14.48867,-4.64353 -22.5735,-5.22953 -14.36345,-1.04107 7.88076,4.02047 14.12147,12.05847 9.35816,12.05327 -0.9625,-10e-4 -5.575,-2.30928 -10.25,-5.12939 -4.675,-2.82012 -10.525,-5.99714 -13,-7.06006 -2.475,-1.06292 -5.89491,-3.27745 -7.5998,-4.9212 -1.70489,-1.64374 -5.71424,-4.0512 -8.90966,-5.34992 l -5.80987,-2.36131 -2.77582,2.05226 c -2.85575,2.11134 -7.89559,10.65952 -10.29621,17.46362 -4.40536,12.4861 -20.18758,31.98458 -31.28937,38.65711 -4.3006,2.58479 -10.06927,6.48941 -12.81927,8.67692 -2.75,2.18752 -9.275,6.56299 -14.5,9.72329 -5.225,3.16029 -11.08766,7.17169 -13.02814,8.91421 -3.15085,2.82942 -15.19475,7.99517 -20.47186,8.78057 -5.21141,0.77563 -18.47061,3.77386 -22.52109,5.09256 -11.02598,3.5897 -17.78861,4.41196 -23.16198,2.81624 -4.03826,-1.19923 -5.62219,-1.26208 -7.91125,-0.31392 -2.90598,1.2037 -33.39615,2.22638 -51.90568,1.741 -10.92507,-0.2865 -23.36396,-0.20489 -27,0.17715 -1.375,0.14447 -8.125,-0.27538 -15,-0.933 -6.875,-0.65762 -20.15,-1.50884 -29.5,-1.8916 -9.35,-0.38276 -17.46155,-0.98334 -18.02566,-1.33464 -0.56412,-0.35129 -4.01946,-0.0761 -7.67854,0.61149 -9.52462,1.78988 -17.55636,0.55893 -28.89888,-4.42906 C 194.72861,472.7076 188.925,470.38258 187,469.81369 c -5.23917,-1.54831 -8.60463,-3.46108 -18.4325,-10.47623 l -8.9325,-6.37603 -3.42983,3.26929 c -5.53881,5.27953 -16.57122,18.77206 -22.34742,27.33068 -2.94676,4.36623 -7.49525,10.8155 -10.10775,14.33172 -2.6125,3.51622 -4.75,6.97716 -4.75,7.69098 0,1.75479 -1.70508,2.70211 -2.51239,1.39585 z m 207.17732,-30.44752 c 30.88791,-0.17275 29.60754,0.24897 28.70567,-9.45474 -0.50345,-5.41691 -0.31308,-6.99236 1.00409,-8.30952 0.89392,-0.89392 1.62531,-2.7559 1.62531,-4.13772 0,-1.38183 0.41643,-2.76978 0.92539,-3.08434 0.8922,-0.55141 1.7584,2.69608 4.358,16.3386 l 1.21661,6.3847 18.41193,-0.19368 c 16.40315,-0.17255 19.18524,-0.4524 25.5,-2.56505 3.89844,-1.30426 9.65738,-3.08501 12.79764,-3.95721 11.39923,-3.16613 31.04208,-12.46281 35.79043,-16.9391 6.34796,-5.98424 20.57997,-17.60301 26.5,-21.63416 7.45132,-5.07385 18.40877,-16.50149 23.95239,-24.98021 2.69703,-4.125 7.11009,-10.3493 9.8068,-13.83178 7.91317,-10.21896 11.21511,-18.03445 8.73475,-20.67467 C 517.33973,363.47492 519.99655,358 528.57143,358 531.55714,358 534,357.77961 534,357.51024 c 0,-0.26936 2.025,-7.94848 4.5,-17.0647 2.475,-9.11622 4.5,-16.99582 4.5,-17.51024 0,-2.13014 -6.44659,-0.88162 -9.23332,1.78823 l -2.84275,2.72353 -3.01265,-3.22353 C 525.85079,322.01881 523.97761,321 521.9845,321 c -4.57486,0 -6.47425,-5.83062 -2.40773,-7.39109 0.78218,-0.30014 6.14728,-0.85121 11.92246,-1.22458 12.74737,-0.82414 12.39504,-0.44053 12.65722,-13.78098 0.26038,-13.2494 0.87111,-12.7594 -14.8799,-11.93846 -10.80669,0.56324 -12.29687,0.44572 -12.85699,-1.01391 C 515.08874,282.18291 513,283.86941 513,288.41203 c 0,2.42662 -0.67492,7.93912 -1.49983,12.25 -0.8249,4.31088 -1.4999,10.16934 -1.5,13.0188 -1.8e-4,5.50956 -3.88993,19.5016 -7.03866,25.31917 -1.0419,1.925 -3.32354,6.425 -5.07033,10 -9.17258,18.77278 -33.22328,50.52571 -40.08038,52.91611 -10.68591,3.72513 -25.98499,-3.40351 -45.84026,-21.35937 -3.07541,-2.78121 -6.91441,-6.25246 -8.5311,-7.7139 -3.17779,-2.87263 -10.52386,-12.6126 -14.96585,-19.84284 -1.52055,-2.475 -3.38361,-4.86516 -4.14014,-5.31146 -0.75653,-0.4463 -1.12444,-1.21771 -0.81756,-1.71425 0.30687,-0.49653 -1.22865,-5.10041 -3.41228,-10.23085 -4.05716,-9.53234 -4.67468,-11.71131 -7.66338,-27.04106 -2.1197,-10.87245 -1.52179,-17.81501 2.55746,-29.69565 C 376.64896,274.19747 378,269.30353 378,268.13131 378,266.95909 378.34961,266 378.77691,266 c 0.4273,0 3.23014,-1.84332 6.22852,-4.09626 14.42361,-10.83769 26.49911,-12.4659 41.32725,-5.5724 7.16351,3.33028 14.36011,10.12897 12.76116,12.05559 -0.95118,1.14611 -0.75639,1.73602 0.97329,2.94754 2.65066,1.85659 4.29906,1.30711 6.50511,-2.16844 18.77503,-29.57933 58.28078,-27.72922 64.09156,3.00149 1.92722,10.19224 4.72454,10.73432 15.93849,3.08869 3.24374,-2.21157 8.03521,-5.21792 10.64771,-6.68078 4.60298,-2.57741 4.75,-2.80348 4.75,-7.3038 0,-9.41857 -8.36782,-33.56566 -11.8112,-34.08367 -2.15402,-0.32405 -17.45749,11.79012 -19.94727,15.79019 -2.63717,4.23684 -19.78319,2.19509 -25.04258,-2.98207 -1.48442,-1.46121 -4.11027,-3.6273 -5.83521,-4.81352 -1.72494,-1.18622 -3.82232,-3.87141 -4.66084,-5.96707 -0.83852,-2.09567 -3.26287,-6.03897 -5.38745,-8.7629 -2.12458,-2.72392 -4.65907,-7.52858 -5.6322,-10.67701 -0.97313,-3.14843 -2.89681,-7.06436 -4.27485,-8.70207 -1.98478,-2.35878 -2.45679,-3.91887 -2.27109,-7.50637 0.31008,-5.99025 -0.2358,-6.30882 -6.4189,-3.74607 -7.4853,3.10248 -13.51208,1.31859 -21.06613,-6.23545 -1.87801,-1.87802 -5.84633,-4.56498 -8.81849,-5.97104 -9.19101,-4.34804 -10.69664,-6.64863 -16.37912,-25.02716 -2.9893,-9.66814 -2.85154,-9.5269 -6.2151,-6.37198 -1.50676,1.4133 -5.13435,3.76693 -8.06129,5.23029 -2.92695,1.46336 -7.42695,4.15785 -10,5.98777 -10.63761,7.56529 -12.3295,8.06369 -27.17828,8.00607 -16.32327,-0.0633 -23.12266,-3.38156 -28.78019,-14.04528 -3.99727,-7.53434 -5.9183,-39.47111 -2.97112,-49.39429 6.44296,-21.693517 3.87381,-26.55449 -10.6232,-20.09966 -2.26902,1.010286 -6.62334,2.114404 -9.67628,2.453594 -3.05293,0.339191 -8.00293,1.458426 -11,2.487189 -4.15068,1.424751 -6.00361,1.621996 -7.7757,0.827732 -2.93764,-1.316666 -9.20014,0.213305 -18.17351,4.43991 -12.97036,6.109252 -19.37446,10.903445 -25.72371,19.257105 -17.62676,23.19137 -25.84833,23.74577 -11.6684,0.78684 l 7.60789,-12.318051 -2.37806,-2.667329 c -5.80834,-6.51487 -7.90002,-10.646564 -5.75229,-11.362475 0.59699,-0.198996 -2.10301,-3.195534 -6,-6.658972 C 216.18845,75.682444 213,73.263015 213,73.769373 c 0,0.506359 0.85514,1.69454 1.90031,2.640404 C 216.63457,77.979264 218.41539,82 217.37627,82 c -0.24007,0 -3.32621,-2.3625 -6.85809,-5.25 -10.69243,-8.74163 -12.51117,-9.966668 -13.96732,-9.407891 -2.38641,0.915753 -9.75918,11.672622 -9.12793,13.317644 0.38027,0.990973 -0.13109,1.712674 -1.4597,2.060112 -3.25427,0.851014 -1.73061,2.581233 3.4331,3.898508 C 203.37165,90.183509 201.07018,98.713549 187,95.5 c -9.50708,-2.171363 -10.11974,-1.964833 -13.94175,4.69987 -3.60663,6.2891 -3.63451,6.48246 -1.05285,7.30184 6.48855,2.05939 10.08729,8.75215 5.61947,10.45082 -1.8721,0.71176 -2.271,1.44781 -1.88343,3.47525 0.60468,3.16315 -0.5044,3.24396 -6.00538,0.43757 -3.54609,-1.80908 -4.64575,-1.95998 -7.21016,-0.98941 C 159.44791,122.04089 157,120.553 157,117.51719 c 0,-0.60531 -2.48641,-2.32 -5.52535,-3.81044 -5.41648,-2.65649 -9.22709,-7.6226 -6.53704,-8.51929 0.58431,-0.19477 1.06239,-1.45575 1.06239,-2.80218 0,-3.630088 2.60114,-4.010443 9.79135,-1.43175 7.0987,2.54587 6.59147,2.75197 10.24733,-4.163692 C 168.79392,91.577839 166.93644,89 160.42564,89 c -2.31395,0 -3.54366,-3.074299 -3.94402,-9.860035 l -0.19824,-3.360034 5.02615,0.666742 c 2.76438,0.366708 6.59525,1.322355 8.51304,2.123659 4.32393,1.806653 5.91885,0.935512 12.37211,-6.757611 8.39352,-10.006155 9.0598,-11.295232 7.04958,-13.639096 C 186.8143,55.34036 180.05472,51 178.07222,51 177.16544,51 174.80279,49.061076 172.82188,46.69128 168.2224,41.188821 156.61221,37.582377 154.5,41 c -0.33992,0.55 -2.37582,1 -4.52422,1 -2.93609,0 -4.77665,0.764276 -7.41119,3.077432 -1.92775,1.692587 -3.95317,2.800447 -4.50093,2.461911 C 135.75361,46.111656 125,65.01448 125,70.502794 c 0,1.748045 -0.73195,2.824993 -2.33397,3.434081 C 120.2436,74.857881 116,84.39086 116,88.911688 c 0,1.21349 -0.40119,1.958398 -0.89153,1.65535 -1.13432,-0.701047 -1.90013,3.909225 -3.14497,18.932962 -1.5371,18.55109 -1.64154,23.84865 -0.50884,25.8109 0.80656,1.39725 0.64559,2.10771 -0.70466,3.11025 -2.56407,1.90377 -2.21375,7.4321 0.74706,11.78934 1.97407,2.9051 2.30439,4.18154 1.57713,6.09439 -0.69448,1.82659 -0.44103,3.20714 1.0341,5.63279 1.45386,2.39068 1.78265,4.12677 1.28446,6.78231 -0.39585,2.11008 -0.29093,3.33513 0.25665,2.9967 0.50943,-0.31484 1.50877,0.85761 2.22076,2.60544 6.70615,16.46254 6.35386,16.22269 11.21808,7.63766 6.15529,-10.86369 9.71176,-11.58239 9.71176,-1.96257 0,5.5403 -0.1716,6.00279 -2.22727,6.00279 -3.31319,0 -14.91821,25.01395 -13.02569,28.07612 1.49198,2.41407 14.89375,7.92388 19.27362,7.92388 10.73527,0 15.79486,6.67241 13.55434,17.875 -0.6216,3.10801 -6.4684,4.69827 -8.77891,2.38775 -0.40549,-0.40548 -1.26799,-0.74298 -1.91667,-0.75 -0.64868,-0.007 -1.31268,-0.46275 -1.47556,-1.01275 -0.16288,-0.55 -1.56029,-2.35 -3.10535,-4 -1.54507,-1.65 -3.05056,-3.69728 -3.34554,-4.54952 -0.50266,-1.45222 -11.88077,-6.46381 -16.21696,-7.1429 -2.18463,-0.34213 -5.40317,4.93145 -5.48798,8.99208 -0.0264,1.26481 -0.71118,3.58205 -1.52169,5.14941 -2.05958,3.98278 -0.5809,4.90954 9.0765,5.6887 9.58194,0.77307 10.97872,1.42501 12.89881,6.02042 5.98506,14.32426 -9.9153,20.20479 -16.93374,6.26271 -4.03211,-8.00976 -6.40521,-5.94685 -8.71875,7.5791 -1.47124,8.60158 -1.39482,41.46245 0.11828,50.85433 0.82343,5.11113 0.81238,7.20604 -0.0435,8.23727 -0.63125,0.76061 -0.84818,2.16355 -0.48206,3.11764 0.56628,1.47572 0.80072,1.51619 1.57023,0.27109 0.61068,-0.98808 1.23363,-1.13455 1.91738,-0.4508 0.67343,0.67343 3.68293,0.69655 8.98115,0.069 8.68768,-1.02903 11.3131,-0.17025 10.38063,3.3955 -0.58906,2.25257 -4.58553,3.73992 -12.80929,4.76717 -4.92914,0.61572 -6.13578,1.15951 -7.18802,3.23937 -1.50674,2.97822 -1.69203,9.20141 -0.31496,10.57848 0.53847,0.53847 1.68259,4.79097 2.54248,9.45 2.0616,11.1701 8.10501,24.97029 10.9361,24.9727 1.12331,9.6e-4 10.70828,-1.66065 21.29993,-3.69245 19.58778,-3.75755 22.39256,-3.74881 20.92898,0.0652 -1.10338,2.87534 -5.72084,4.852 -19.19398,8.21661 -14.12736,3.52798 -19.2205,5.53634 -20.14416,7.94335 -1.2026,3.13395 13.31569,26.34006 23.36021,37.33907 l 5.82046,6.37356 10.04663,-10.37356 C 174.10134,423.1681 181.38991,415.575 184.77252,412 c 5.22912,-5.52654 6.41807,-6.33494 7.93884,-5.39787 4.07822,2.51292 2.80434,5.03091 -8.42739,16.65795 -5.97178,6.18196 -12.80106,13.70278 -15.17619,16.71295 l -4.31841,5.47303 3.73908,3.13915 c 4.87776,4.09512 23.20826,13.67024 31.43137,16.41848 3.5529,1.18741 7.65663,3.01113 9.11939,4.05271 4.7861,3.40801 8.26909,4.1449 19.25025,4.07276 8.38756,-0.0551 11.38683,0.29407 13.30134,1.5485 1.8612,1.2195 2.75568,1.33586 3.62055,0.47099 1.43288,-1.43288 22.80341,-1.55538 30.68845,-0.17591 12.11674,2.1198 17.64826,2.75373 19.5602,2.24167 1.1,-0.2946 13.77422,-0.60149 28.16493,-0.68198 z m 27.74567,-41.29774 c -1.19965,-0.80904 -3.79929,-12.79677 -3.04111,-14.02352 0.26088,-0.42211 0.0187,-4.53634 -0.5382,-9.14273 -1.3374,-11.06246 1.43092,-17.75785 4.26633,-10.31844 1.24035,3.25436 5.00097,20.09177 4.96952,22.25 -0.12013,8.24379 -2.64768,13.26385 -5.65654,11.23469 z M 338.5,395.09542 c -16.59775,-4.20939 -22.68437,-26.08722 -9.6751,-34.7763 13.46943,-8.99644 25.952,-5.81999 33.08115,8.41819 6.50228,12.98622 -8.68686,30.09108 -23.40605,26.35811 z m 13.25,-14.4185 C 355.77519,377.05327 353.77169,369 348.84501,369 347.83026,369 347,368.37748 347,367.61663 c 0,-3.76415 -7.42314,-2.43674 -10.86868,1.94355 -7.03805,8.94744 6.9606,18.91112 15.61868,11.11674 z m -162.53732,-2.8156 C 179.63503,371.72842 182.54466,351 192.98318,351 c 3.17722,0 4.77866,-1.24624 8.35263,-6.5 1.49659,-2.2 3.85855,-5.56655 5.2488,-7.48123 1.39024,-1.91467 2.33129,-4.23236 2.09122,-5.15041 -0.26562,-1.01572 0.69543,-2.50606 2.45484,-3.80685 5.04953,-3.73328 8.24577,-9.48333 6.79814,-12.22988 -2.80105,-5.31437 -10.21355,-14.73913 -16.34954,-20.78792 l -6.54937,-6.4563 -3.48201,1.25911 c -12.93982,4.6791 -17.06058,-17.69384 -4.55362,-24.72314 9.16767,-5.15252 13.96506,-1.7006 13.99099,10.06709 l 0.0147,6.69048 4.76372,4.01683 c 2.62005,2.20925 7.42698,7.21406 10.68208,11.12178 8.70665,10.4523 8.80828,10.46381 12.96414,1.469 1.91651,-4.14803 7.85576,-14.72936 13.19835,-23.51406 8.90245,-14.63812 9.61682,-16.18503 8.55275,-18.5204 -4.04372,-8.875 2.68279,-16.26202 13.77309,-15.12553 14.59691,1.49584 12.77825,17.49027 -2.60184,22.88221 C 256.55462,266.23631 240,290.20402 240,296.54339 c 0,0.33382 -1.81155,3.65623 -4.02566,7.38313 -2.46412,4.14774 -3.78025,7.41569 -3.39301,8.42483 0.42596,1.11004 0.10765,1.64865 -0.97434,1.64865 -3.02025,0 -0.45851,4.68788 8.01082,14.65949 2.41021,2.83772 4.38219,5.54769 4.38219,6.02216 0,3.95729 6.49377,8.53845 11.29684,7.9696 7.79695,-0.92343 12.62522,4.21201 12.6812,13.48797 0.0716,11.85616 -14.96006,11.75925 -20.27685,-0.13073 -1.99709,-4.46612 -8.79824,-13.07915 -15.93946,-20.18586 -2.09169,-2.08158 -3.50393,-4.33086 -3.20625,-5.10661 1.01769,-2.65205 -3.3995,-6.57576 -4.84149,-4.3006 -0.6677,1.05348 -3.52496,5.35293 -6.34949,9.55432 -9.55791,14.21711 -11.38884,18.44701 -10.7668,24.87395 1.20997,12.50156 -8.93273,22.42992 -17.38502,17.01763 z m 8.3745,-10.35403 c 2.32584,-3.54968 1.18503,-7.99093 -1.66131,-6.46761 -2.98402,1.59699 -4.53991,5.51552 -2.95045,7.43071 1.76211,2.12321 2.7207,1.92302 4.61176,-0.9631 z m 146.682,-26.79801 C 339.45684,333.63999 340.47155,308 345.56366,308 c 2.95846,0 4.64927,31.759 1.74252,32.7303 -0.65661,0.2194 -0.94596,1.04484 -0.64301,1.83431 0.90058,2.34688 -0.018,1.63499 -2.39399,-1.85533 z m -0.87013,-51.79712 -3.10094,-1.92216 -0.61494,-18.245 c -0.70664,-20.9656 -0.1366,-26.245 2.83379,-26.245 1.52113,0 2.23849,1.04819 3.07973,4.5 1.28629,5.27793 2.74073,44.03874 1.64792,43.91715 -0.40953,-0.0456 -2.14004,-0.94781 -3.84556,-2.00499 z m -14.44048,-82.06602 c -3.00196,-11.14841 0.95434,-45.8721 4.94547,-43.40545 1.40202,0.8665 1.5106,41.33854 0.12071,44.99421 -1.47958,3.8916 -3.78517,3.16857 -5.06618,-1.58876 z m 127.64139,184.26599 c 20.36251,-15.07788 42.42309,-52.56246 45.50632,-77.32277 5.61414,-45.08511 -2.17522,-57.94473 -32.33787,-53.38726 C 462.80634,261.45404 450,278.58662 450,286.84868 c 0,8.0152 -9.62962,6.70204 -12.96838,-1.76847 -2.99106,-7.58837 -9.57205,-16.58733 -14.53392,-19.87394 -6.23122,-4.12738 -21.74193,-3.85478 -27.00011,0.47454 -1.88323,1.55055 -4.80742,3.87985 -6.49821,5.17621 -6.38925,4.89878 -11.68861,20.8034 -10.65733,31.98515 0.64811,7.02719 4.89791,16.56468 17.00273,38.15783 8.1472,14.53335 8.53807,15.3119 9.1069,18.13957 0.71265,3.54258 6.81501,9.30363 13.54832,12.79055 3.025,1.56653 6.00231,3.8198 6.61625,5.00727 1.05114,2.03309 7.8392,8.10204 14.05116,12.56261 2.67954,1.92407 9.1002,4.19735 12.43255,4.40182 0.87998,0.054 3.35498,-1.20136 5.5,-2.78969 z M 455.75,362.5534 C 453.38744,359.59244 453,358.19381 453,352.62623 453,346.48941 448.86811,340 444.96072,340 c -2.42909,0 -4.9002,4.39638 -4.72563,8.40743 0.7231,16.61447 -18.71799,22.05847 -25.33703,7.09502 l -1.97239,-4.45891 2.1761,-5.05847 c 3.42319,-7.95743 9.89495,-11.19793 15.92198,-7.97236 1.49333,0.79921 2.11195,0.60224 2.93426,-0.93426 3.42193,-6.39392 -2.62841,-13.40542 -11.77686,-13.64774 -13.19384,-0.34948 -17.98246,-9.38885 -11.62756,-21.94909 1.9854,-3.92408 3.24788,-5.38804 4.29872,-4.9848 0.81829,0.31401 1.80851,0.052 2.20049,-0.58226 1.00355,-1.62376 10.63755,1.68488 13.6356,4.68293 1.96468,1.96468 2.3116,3.33771 2.3116,9.14885 0,7.06399 7.11338,17.62877 9.90293,14.7078 4.37432,-4.58039 15.22461,-19.47396 15.62982,-21.45414 3.13106,-15.30094 15.80457,-22.01439 23.37938,-12.38458 8.80526,11.19407 -2.60876,29.25241 -15.41251,24.38444 C 462.75206,313.57504 450,326.22956 450,331.37328 450,333.30451 457.38252,336 462.67187,336 c 8.29629,0 14.4169,6.55008 15.44785,16.53178 1.14132,11.05036 -15.57389,18.53876 -22.36972,10.02162 z M 557.98469,303.75 c -0.0178,-6.09384 -1.34501,-9.27182 -2.3323,-5.58453 -0.83058,3.10203 -0.82184,9.33175 0.0143,10.16786 1.64498,1.64498 2.33222,0.28612 2.31802,-4.58333 z M 544,281.05902 c 0,-2.83637 -1.5993,-3.36768 -4.47175,-1.48557 C 536.04071,281.85857 536.36442,283 540.5,283 c 2.79786,0 3.5,-0.38938 3.5,-1.94098 z m -28.01133,-53.83019 c 6.26669,-5.28515 10.87146,-11.79238 10.96614,-15.4968 0.0249,-0.97238 2.76714,-4.57238 6.09397,-8 15.15792,-15.61715 24.0488,-46.34189 18.3598,-63.44708 -8.95588,-26.92779 -28.41416,-37.88828 -53.17846,-29.95445 -13.25569,4.24677 -12.98236,3.90828 -12.93912,16.02354 l 0.0367,10.29063 6.58614,-0.0723 c 19.47235,-0.21387 23.38187,27.53089 6.64712,47.17269 l -2.93903,3.44957 -7.56097,-0.38886 c -6.04258,-0.31076 -8.84562,-1.03759 -13.95794,-3.61929 -10.33928,-5.2213 -15.04121,6.3485 -5.81698,14.31355 1.2739,1.1 4.04718,5.9562 6.16285,10.79156 11.73639,26.82349 25.01253,32.87585 41.53976,18.93727 z M 489.28212,175.62316 C 501.75543,170.28619 501.58066,149 489.06353,149 c -4.66396,0 -6.98641,2.3784 -10.46769,10.71987 -5.47124,13.1096 -0.40512,20.64898 10.68628,15.90329 z m -29.6375,-1.71254 c 4.486,-2.7725 7.88095,-10.91062 4.55155,-10.91062 -1.37484,0 -7.56346,6.89485 -7.83222,8.72601 -0.14027,0.95573 -0.73235,1.89679 -1.31572,2.09125 -1.03553,0.34517 -0.49441,2.18274 0.64275,2.18274 0.31512,0 2.09426,-0.94022 3.95364,-2.08938 z m -14.28977,-5.28552 c 9.40485,-3.9296 11.82749,-8.34447 7.54565,-13.75072 -4.65519,-5.87766 -1.18057,-9.56056 4.96126,-5.25865 3.86197,2.70502 4.65304,0.61637 4.5147,-11.92014 C 462.21966,123.48514 458.39671,109 454.80306,109 c -0.63007,0 -1.9899,-0.7641 -3.02185,-1.698 -5.58768,-5.05679 -18.93177,-0.3441 -25.50103,9.0061 -3.85498,5.48689 -3.68169,7.27111 0.99115,10.20528 6.82782,4.28732 4.3361,8.81673 -2.77133,5.03768 -6.48828,-3.44986 -6.94902,-3.31635 -8.84809,2.56377 -6.64131,20.56362 11.80063,41.99033 29.70294,34.51027 z m -76.4923,-15.58568 c 1.84215,-0.52832 7.68918,-3.82651 12.9934,-7.3293 5.30423,-3.5028 11.58389,-7.20121 13.95481,-8.2187 7.26242,-3.11668 7.8665,-7.16142 1.40452,-9.40426 -19.04295,-6.60945 -21.80223,-27.24897 -6.26988,-46.898869 11.33387,-14.338422 21.17682,-15.225856 27.05506,-2.439267 6.10737,13.285027 7.56579,14.858474 10.941,11.80395 3.69033,-3.339696 2.09126,-10.64243 -3.92212,-17.911858 C 422.51108,69.608937 421,66.763463 421,65.072389 c 0,-3.639018 -6.10737,-13.466748 -13.75,-22.125928 -6.26495,-7.098253 -7.68037,-10.519136 -4.60229,-11.123137 2.77479,-0.544489 -2.87011,-6.242521 -8.64576,-8.727141 -7.2542,-3.120669 -11.54017,-0.825758 -19.31415,10.341702 -2.22313,3.193563 -3.68922,2.498269 -3.6835,-1.746902 0.003,-2.1801 1.29009,-4.886971 4.06306,-8.544588 8.11169,-10.699512 1.79442,-7.32956 -8.68479,4.632914 -10.76774,12.291837 -10.97961,12.660549 -9.00584,15.672896 1.41829,2.164592 1.44772,3.073569 0.25094,7.75 -1.64579,6.430925 -4.31707,7.442624 -3.78649,1.434068 0.41625,-4.713875 -1.25115,-4.590866 -4.59118,0.338703 -2.6938,3.9758 -2.847,5.763404 -0.53213,6.209208 1.45479,0.280167 1.31027,0.712542 -0.9437,2.823324 -3.6983,3.463351 -4.80899,6.927115 -3.72271,11.609497 1.24526,5.367653 1.20025,5.59766 -0.96113,4.911665 -2.62619,-0.83352 -3.80469,3.110361 -5.36257,17.945912 -1.31767,12.548148 -2.16044,14.124108 -5.5865,10.446658 l -2.03668,-2.18611 -0.70578,2.81205 c -1.84021,7.33198 -1.02674,18.93465 1.3512,19.27237 2.94052,0.41762 2.85128,2.26695 -0.25,5.18045 -2.66881,2.50721 -2.98715,3.68247 -1.59352,5.88293 0.73409,1.15908 1.25323,1.11862 3.2072,-0.25 3.5527,-2.48841 4.00972,-2.04385 3.3113,3.22103 -1.27322,9.59802 17.98656,16.61675 33.43757,12.18546 z m 31.78665,-35.80473 c 1.34367,-0.85901 8.89518,-11.04997 12.24371,-16.52321 C 416.23625,95.246733 410.49683,85 404.09256,85 c -4.90308,0 -15.97552,17.25814 -14.62767,22.79952 1.77243,7.28694 7.27867,11.93205 11.18431,9.43517 z m 74.08556,-8.36945 c 2.5199,-2.5199 -4.14046,-8.02739 -14.44611,-11.945596 -3.28084,-1.247373 -2.25706,0.144307 5.71135,7.763746 5.76294,5.51055 6.87408,6.04253 8.73476,4.18185 z m 11.23723,-6.85095 c 2.14077,-1.09214 4.14829,-2.399895 4.46116,-2.90612 0.31286,-0.506225 1.41223,-0.699858 2.44304,-0.430296 2.08966,0.546458 9.03858,-2.665327 11.07472,-5.118725 1.49686,-1.803603 1.01779,-7.147999 -1.34989,-15.059149 -0.82303,-2.75 -1.73034,-6.145129 -2.01625,-7.54473 -0.28591,-1.399602 -2.43382,-5.449602 -4.77314,-9 C 493.47232,58.404871 490.19521,52.8 488.52917,49.5 486.59331,45.66557 484.77814,43.372507 483.5,43.146762 c -1.1,-0.19428 -2.69159,-0.964731 -3.53688,-1.712113 -1.5145,-1.339094 -5.35389,-1.00293 -7.50178,0.656831 -0.57126,0.441439 -3.94626,1.271236 -7.5,1.843994 -12.36683,1.993168 -18.07773,4.976245 -26.6458,13.918377 -5.24733,5.47642 -5.23773,5.033531 -0.31987,14.750934 2.19762,4.342368 3.99762,9.100572 4,10.573786 0.006,3.518946 2.21478,5.596201 6.78648,6.381472 10.14933,1.743331 24.1203,7.467573 30.21785,12.380987 3.04632,2.45472 2.31892,2.44708 6.97199,0.0733 z"
       id="path847" />
  </g>
</svg>
