<?xml version="1.0" encoding="UTF-8"?>
<svg xmlns="http://www.w3.org/2000/svg" xmlns:xlink="http://www.w3.org/1999/xlink" width="4048px" height="4048px" viewBox="0 0 4048 4048" version="1.1">
<g id="surface1">
<path style=" stroke:none;fill-rule:nonzero;fill:rgb(0%,0%,0%);fill-opacity:1;" d="M 2118.453125 20.238281 C 2124.433594 20.296875 2130.414062 20.355469 2136.574219 20.417969 C 2223.695312 21.449219 2307.355469 36.554688 2392.800781 52.917969 C 2427.253906 59.453125 2461.359375 64.191406 2496.265625 67.464844 C 2496.265625 71.917969 2496.265625 76.371094 2496.265625 80.960938 C 2509.625 78.734375 2522.984375 76.507812 2536.746094 74.214844 C 2538.972656 78.667969 2541.199219 83.117188 2543.492188 87.707031 C 2555.574219 91.574219 2567.855469 94.808594 2580.179688 97.828125 C 2690.5 128.089844 2798.46875 171.5625 2899.644531 224.855469 C 2917.765625 234.289062 2935.777344 242.625 2954.617188 250.46875 C 2982.207031 262.246094 3005.902344 278.324219 3030.28125 295.695312 C 3042.1875 304.804688 3042.1875 304.804688 3056.238281 303.601562 C 3056.238281 308.054688 3056.238281 312.503906 3056.238281 317.09375 C 3060.769531 318.632812 3065.300781 320.171875 3069.96875 321.757812 C 3095.558594 333.050781 3117.269531 347.929688 3140.152344 363.898438 C 3144.878906 367.179688 3149.609375 370.464844 3154.480469 373.84375 C 3223.503906 422.230469 3288.269531 474.132812 3349.957031 531.5625 C 3364.695312 544.785156 3379.59375 556.488281 3395.683594 567.984375 C 3421.308594 586.53125 3443.183594 607.941406 3461.039062 634.1875 C 3461.039062 638.640625 3461.039062 643.09375 3461.039062 647.679688 C 3467.71875 649.90625 3474.398438 652.132812 3481.28125 654.425781 C 3494.167969 668.472656 3494.167969 668.472656 3508.6875 686.894531 C 3516.75 697.019531 3516.75 697.019531 3524.976562 707.347656 C 3529.179688 712.640625 3529.179688 712.640625 3533.46875 718.046875 C 3547.074219 734.9375 3561.246094 751.347656 3575.3125 767.855469 C 3600.566406 798.105469 3624.390625 829.066406 3647.417969 861.042969 C 3651.851562 867.160156 3651.851562 867.160156 3656.375 873.398438 C 3676.933594 902.386719 3676.933594 902.386719 3676.933594 917.546875 C 3681.386719 917.546875 3685.839844 917.546875 3690.425781 917.546875 C 3693.113281 922.511719 3695.800781 927.476562 3698.570312 932.59375 C 3702.144531 939.179688 3705.71875 945.761719 3709.402344 952.546875 C 3712.925781 959.042969 3716.445312 965.539062 3720.074219 972.230469 C 3727.199219 985.074219 3734.625 997.753906 3742.371094 1010.234375 C 3751.148438 1025.492188 3751.148438 1025.492188 3751.148438 1038.988281 C 3755.597656 1038.988281 3760.050781 1038.988281 3764.640625 1038.988281 C 3838.316406 1187.414062 3903.542969 1337.519531 3946.800781 1497.761719 C 3949.085938 1506.136719 3951.375 1514.511719 3953.730469 1523.140625 C 3961.269531 1551.933594 3967.039062 1575.796875 3967.039062 1605.707031 C 3971.492188 1607.933594 3975.945312 1610.160156 3980.535156 1612.453125 C 3982.972656 1625.113281 3982.972656 1625.113281 3984.117188 1641.707031 C 3986.191406 1667.304688 3988.746094 1692.675781 3992.128906 1718.132812 C 3992.988281 1724.734375 3993.851562 1731.335938 3994.738281 1738.136719 C 3996.492188 1751.457031 3998.265625 1764.773438 4000.0625 1778.089844 C 4012.710938 1875.828125 4015.25 1972.851562 4014.6875 2071.226562 C 4014.65625 2081.785156 4014.625 2092.34375 4014.597656 2102.90625 C 4014.523438 2128.328125 4014.40625 2153.75 4014.265625 2179.171875 C 4009.8125 2179.171875 4005.359375 2179.171875 4000.773438 2179.171875 C 4001.085938 2183.21875 4001.398438 2187.261719 4001.722656 2191.429688 C 4010.164062 2403.351562 3927.882812 2639.105469 3838.8125 2828.585938 C 3833.960938 2839.089844 3829.605469 2849.824219 3825.359375 2860.585938 C 3827.585938 2865.039062 3829.8125 2869.492188 3832.105469 2874.078125 C 3825.425781 2874.078125 3818.75 2874.078125 3811.867188 2874.078125 C 3810.144531 2879.734375 3808.421875 2885.386719 3806.648438 2891.210938 C 3797.578125 2916.800781 3786.296875 2940.210938 3773.917969 2964.316406 C 3771.726562 2968.640625 3769.535156 2972.960938 3767.277344 2977.414062 C 3761.925781 2987.960938 3756.539062 2998.488281 3751.148438 3009.011719 C 3746.695312 3009.011719 3742.242188 3009.011719 3737.652344 3009.011719 C 3736.054688 3013.535156 3734.453125 3018.058594 3732.804688 3022.71875 C 3721.972656 3047.816406 3708.320312 3070.230469 3693.800781 3093.347656 C 3690.855469 3098.058594 3687.914062 3102.769531 3684.878906 3107.625 C 3659.800781 3147.105469 3632.175781 3183.90625 3602.929688 3220.375 C 3591.664062 3235.195312 3583.160156 3248.429688 3575.734375 3265.386719 C 3571.28125 3265.386719 3566.828125 3265.386719 3562.238281 3265.386719 C 3562.238281 3269.839844 3562.238281 3274.292969 3562.238281 3278.878906 C 3557.789062 3278.878906 3553.335938 3278.878906 3548.746094 3278.878906 C 3547.007812 3282.765625 3545.269531 3286.65625 3543.476562 3290.660156 C 3534.546875 3307.175781 3524.253906 3319.402344 3511.640625 3333.273438 C 3497.753906 3348.601562 3486.0625 3362.789062 3474.535156 3380.078125 C 3467.28125 3386.765625 3459.8125 3393.21875 3452.183594 3399.476562 C 3431.363281 3416.605469 3412.566406 3435.160156 3393.574219 3454.292969 C 3286.203125 3558.597656 3165.429688 3648.960938 3036 3724.160156 C 3030.085938 3727.863281 3024.171875 3731.570312 3018.078125 3735.386719 C 3002.265625 3744.398438 3002.265625 3744.398438 2988.773438 3744.398438 C 2986.546875 3751.078125 2984.320312 3757.757812 2982.027344 3764.640625 C 2968.648438 3769.464844 2955.113281 3773.855469 2941.546875 3778.132812 C 2916.824219 3789.386719 2892.546875 3801.5625 2868.175781 3813.554688 C 2820.742188 3836.574219 2773.386719 3858.78125 2723.964844 3877.226562 C 2719.59375 3878.867188 2715.21875 3880.507812 2710.714844 3882.199219 C 2692.160156 3888.890625 2678.09375 3892.828125 2658.1875 3892.828125 C 2655.960938 3897.28125 2653.734375 3901.730469 2651.441406 3906.320312 C 2634.273438 3911.441406 2617.433594 3915.835938 2599.996094 3919.8125 C 2590.488281 3922.054688 2580.984375 3924.304688 2571.480469 3926.558594 C 2566.757812 3927.671875 2562.03125 3928.785156 2557.164062 3929.933594 C 2544.742188 3933 2532.433594 3936.503906 2520.144531 3940.054688 C 2165.082031 4040.378906 1779 4018.367188 1429.425781 3909.5 C 1415.699219 3905.496094 1415.699219 3905.496094 1396.558594 3906.320312 C 1396.558594 3901.867188 1396.558594 3897.414062 1396.558594 3892.828125 C 1390.621094 3891.996094 1384.679688 3891.167969 1378.558594 3890.3125 C 1357.378906 3886.324219 1340.066406 3880.644531 1320.265625 3872.324219 C 1310.265625 3868.148438 1310.265625 3868.148438 1300.066406 3863.890625 C 1293.085938 3860.914062 1286.105469 3857.941406 1278.914062 3854.875 C 1271.75 3851.851562 1264.582031 3848.824219 1257.199219 3845.707031 C 1095.851562 3777.167969 1095.851562 3777.167969 1086.214844 3757.894531 C 1075.015625 3753.277344 1063.761719 3748.808594 1052.480469 3744.398438 C 1037.070312 3735.9375 1021.984375 3727.320312 1006.941406 3718.257812 C 1002.609375 3715.660156 998.28125 3713.0625 993.820312 3710.386719 C 948.148438 3682.519531 904.792969 3651.539062 861.414062 3620.273438 C 846.980469 3609.894531 832.804688 3600.464844 817.507812 3591.335938 C 798.472656 3579.832031 784.792969 3564.417969 769.121094 3548.746094 C 762.441406 3546.519531 755.761719 3544.292969 748.878906 3542 C 740.894531 3532.417969 732.941406 3522.8125 725.160156 3513.0625 C 714.832031 3501.15625 704.007812 3491.429688 691.953125 3481.28125 C 658.984375 3453.308594 629 3422.46875 598.753906 3391.625 C 592.839844 3385.621094 592.839844 3385.621094 586.800781 3379.5 C 583.257812 3375.878906 579.714844 3372.257812 576.066406 3368.527344 C 566.78125 3359.078125 566.78125 3359.078125 553.226562 3353.09375 C 546.472656 3341.855469 539.726562 3330.609375 532.988281 3319.359375 C 524.492188 3309.742188 515.753906 3300.339844 506.84375 3291.109375 C 472.539062 3253.871094 443.589844 3213.34375 414.449219 3171.996094 C 410.863281 3166.921875 407.28125 3161.851562 403.585938 3156.621094 C 400.40625 3152.070312 397.222656 3147.519531 393.945312 3142.828125 C 384.945312 3130.3125 384.945312 3130.3125 374.054688 3120.265625 C 363.304688 3109.164062 357.921875 3099.089844 351.460938 3085.097656 C 340.488281 3062.277344 328.335938 3040.832031 315.082031 3019.28125 C 282.308594 2965.851562 253.929688 2910.777344 226.855469 2854.261719 C 223.488281 2847.234375 220.117188 2840.207031 216.644531 2832.96875 C 183.628906 2763.191406 157.175781 2693.035156 134.089844 2619.394531 C 129.4375 2604.667969 124.78125 2589.945312 120.121094 2575.222656 C 118.105469 2568.800781 116.085938 2562.375 114.003906 2555.753906 C 109.710938 2542.277344 105.179688 2528.871094 100.492188 2515.523438 C 93.945312 2494.644531 93.417969 2477.535156 94.453125 2455.785156 C 90 2453.558594 85.546875 2451.332031 80.960938 2449.039062 C 73.707031 2422.71875 71.171875 2395.113281 67.464844 2368.078125 C 66.65625 2362.191406 65.84375 2356.304688 65.007812 2350.242188 C 62.273438 2330.191406 59.585938 2310.132812 56.925781 2290.070312 C 56.070312 2283.617188 55.210938 2277.164062 54.332031 2270.511719 C 51.847656 2251.324219 49.496094 2232.125 47.226562 2212.90625 C 46.546875 2207.257812 45.867188 2201.609375 45.167969 2195.789062 C 38.894531 2136.832031 39.121094 2077.730469 39.214844 2018.519531 C 39.222656 2012.964844 39.230469 2007.40625 39.242188 2001.683594 C 39.941406 1763.171875 74.695312 1515.316406 171.089844 1295.050781 C 177.230469 1281.546875 177.230469 1281.546875 168.667969 1268.375 C 173.011719 1264.71875 173.011719 1264.71875 177.441406 1260.996094 C 192.839844 1243.722656 200.824219 1225.300781 210.410156 1204.28125 C 213.984375 1196.558594 217.558594 1188.835938 221.242188 1180.878906 C 230.632812 1160.960938 230.632812 1160.960938 229.386719 1140.1875 C 238.382812 1131.191406 247.378906 1122.195312 256.375 1113.199219 C 262.5625 1104.019531 268.589844 1094.730469 274.503906 1085.371094 C 308.929688 1032.820312 351.542969 975.574219 411.546875 951.28125 C 446.238281 946.574219 464.433594 951.289062 492.507812 971.519531 C 533.121094 1023.648438 555.136719 1085.792969 575.996094 1147.777344 C 578.246094 1154.445312 580.5 1161.113281 582.816406 1167.980469 C 597.773438 1214.429688 607.164062 1260.554688 613.945312 1308.851562 C 618.152344 1307.882812 622.355469 1306.914062 626.6875 1305.914062 C 685.355469 1292.375 739.660156 1287.601562 799.824219 1287.71875 C 807.210938 1287.710938 814.601562 1287.703125 822.210938 1287.699219 C 837.753906 1287.691406 853.296875 1287.707031 868.839844 1287.734375 C 892.703125 1287.769531 916.570312 1287.734375 940.433594 1287.691406 C 955.550781 1287.695312 970.664062 1287.703125 985.777344 1287.71875 C 996.519531 1287.695312 996.519531 1287.695312 1007.476562 1287.675781 C 1017.378906 1287.707031 1017.378906 1287.707031 1027.476562 1287.742188 C 1036.207031 1287.75 1036.207031 1287.75 1045.117188 1287.757812 C 1059.226562 1288.613281 1059.226562 1288.613281 1072.71875 1295.359375 C 1074.945312 1290.90625 1077.171875 1286.453125 1079.464844 1281.867188 C 1079.464844 1286.320312 1079.464844 1290.773438 1079.464844 1295.359375 C 1083.199219 1295.664062 1086.933594 1295.964844 1090.78125 1296.277344 C 1222.351562 1307.269531 1222.351562 1307.269531 1281.867188 1329.09375 C 1282.839844 1323.945312 1283.816406 1318.796875 1284.816406 1313.492188 C 1288.613281 1295.359375 1288.613281 1295.359375 1295.359375 1275.121094 C 1299.8125 1275.121094 1304.265625 1275.121094 1308.851562 1275.121094 C 1313.304688 1259.535156 1317.757812 1243.949219 1322.347656 1227.894531 C 1326.800781 1227.894531 1331.253906 1227.894531 1335.839844 1227.894531 C 1337.492188 1223.066406 1339.144531 1218.238281 1340.847656 1213.265625 C 1365.34375 1158.109375 1417.890625 1104.585938 1464.027344 1065.972656 C 1468.480469 1065.972656 1472.933594 1065.972656 1477.519531 1065.972656 C 1477.519531 1061.519531 1477.519531 1057.066406 1477.519531 1052.480469 C 1510.671875 1036.242188 1534.261719 1028.125 1571.972656 1032.238281 C 1615.558594 1050.679688 1636.523438 1068.933594 1655.886719 1111.511719 C 1657.941406 1115.988281 1660 1120.460938 1662.121094 1125.070312 C 1685.824219 1178.195312 1709.644531 1236.441406 1706.90625 1295.359375 C 1711.359375 1297.585938 1715.8125 1299.8125 1720.398438 1302.105469 C 1722.855469 1313.886719 1722.855469 1313.886719 1724.019531 1329.046875 C 1726.917969 1361.082031 1731.496094 1392.550781 1736.714844 1424.285156 C 1737.640625 1429.960938 1738.570312 1435.636719 1739.527344 1441.484375 C 1767.652344 1670.214844 1767.652344 1670.214844 1859.683594 1876.8125 C 1868.828125 1889.066406 1868.828125 1889.066406 1868.828125 1902.558594 C 1873.28125 1902.558594 1877.730469 1902.558594 1882.320312 1902.558594 C 1887.46875 1907.847656 1892.617188 1913.136719 1897.921875 1918.582031 C 1925.6875 1945.703125 1950.273438 1951.808594 1988.578125 1952.316406 C 2034.6875 1951.296875 2069.972656 1942.425781 2104.511719 1910.886719 C 2116.855469 1897.402344 2127.890625 1883.570312 2138.691406 1868.828125 C 2141.503906 1865.042969 2144.3125 1861.261719 2147.207031 1857.363281 C 2164.488281 1831.8125 2177.199219 1804.734375 2189.882812 1776.65625 C 2238.085938 1670.296875 2301.707031 1575.027344 2374.828125 1484.265625 C 2379.566406 1477.917969 2384.304688 1471.570312 2389.191406 1465.027344 C 2429.476562 1412.347656 2476.949219 1374.695312 2530 1335.839844 C 2535.773438 1331.464844 2541.550781 1327.089844 2547.5 1322.582031 C 2717.601562 1197.558594 2928.074219 1142.125 3137.199219 1167.171875 C 3181.320312 1175.070312 3225.867188 1186.054688 3265.386719 1207.652344 C 3262.464844 1202.941406 3259.542969 1198.226562 3256.53125 1193.371094 C 3252.773438 1187.230469 3249.015625 1181.089844 3245.148438 1174.761719 C 3241.390625 1168.65625 3237.632812 1162.554688 3233.761719 1156.261719 C 3224.90625 1140.1875 3224.90625 1140.1875 3224.90625 1126.691406 C 3220.453125 1126.691406 3216 1126.691406 3211.414062 1126.691406 C 3209.449219 1122.9375 3207.480469 1119.179688 3205.457031 1115.308594 C 3177.453125 1063.171875 3145.863281 1019.628906 3103.464844 978.265625 C 3095.546875 969.175781 3087.675781 960.035156 3079.851562 950.859375 C 3062.089844 930.382812 3044.1875 913.699219 3022.507812 897.308594 C 3014.757812 890.296875 3007.03125 883.269531 2999.316406 876.222656 C 2881.628906 773.464844 2727.085938 683.332031 2570.480469 661.171875 C 2559.226562 658.976562 2547.976562 656.738281 2536.746094 654.425781 C 2536.746094 649.972656 2536.746094 645.519531 2536.746094 640.933594 C 2532.765625 640.558594 2528.785156 640.1875 2524.679688 639.800781 C 2506.632812 638.09375 2488.589844 636.351562 2470.546875 634.609375 C 2464.277344 634.019531 2458.011719 633.433594 2451.558594 632.828125 C 2445.535156 632.242188 2439.511719 631.65625 2433.304688 631.050781 C 2427.757812 630.519531 2422.210938 629.992188 2416.496094 629.445312 C 2401.8125 627.441406 2401.8125 627.441406 2381.574219 620.691406 C 2351.566406 618.4375 2321.503906 617.550781 2291.429688 616.5625 C 2276.605469 616.054688 2261.789062 615.445312 2246.96875 614.828125 C 2237.574219 614.503906 2228.179688 614.179688 2218.785156 613.867188 C 2210.222656 613.558594 2201.660156 613.246094 2192.835938 612.925781 C 2171.660156 611.695312 2171.660156 611.695312 2158.933594 627.441406 C 2158.933594 622.988281 2158.933594 618.535156 2158.933594 613.945312 C 2134.054688 616.03125 2109.175781 618.148438 2084.296875 620.273438 C 2077.292969 620.859375 2070.289062 621.445312 2063.070312 622.050781 C 1936.433594 632.90625 1805.847656 658.890625 1688.644531 709.191406 C 1673.171875 715.148438 1673.171875 715.148438 1652.933594 715.148438 C 1650.707031 719.597656 1648.480469 724.050781 1646.1875 728.640625 C 1633.1875 734.867188 1619.925781 740.554688 1606.550781 745.929688 C 1595.722656 750.324219 1595.722656 750.324219 1584.675781 754.808594 C 1571.570312 759.90625 1558.328125 764.671875 1544.988281 769.121094 C 1542.761719 773.574219 1540.535156 778.027344 1538.238281 782.613281 C 1531.5625 782.613281 1524.882812 782.613281 1518 782.613281 C 1515.773438 787.066406 1513.546875 791.519531 1511.253906 796.105469 C 1501.667969 803.476562 1491.78125 810.460938 1481.738281 817.191406 C 1476.398438 820.824219 1471.058594 824.460938 1465.554688 828.207031 C 1450.535156 836.585938 1450.535156 836.585938 1430.292969 836.585938 C 1428.066406 841.039062 1425.839844 845.492188 1423.546875 850.078125 C 1411.167969 856.757812 1411.167969 856.757812 1394.980469 863.730469 C 1386.101562 867.570312 1386.101562 867.570312 1377.042969 871.488281 C 1370.683594 874.164062 1364.320312 876.839844 1357.765625 879.597656 C 1348.023438 883.699219 1348.023438 883.699219 1338.082031 887.886719 C 1245.902344 926.214844 1157.808594 945.054688 1059.226562 958.027344 C 1059.226562 953.574219 1059.226562 949.121094 1059.226562 944.535156 C 1051.851562 945.089844 1044.476562 945.648438 1036.878906 946.21875 C 982.617188 946.125 933.011719 921.480469 888.898438 891.5625 C 876.976562 883.375 876.976562 883.375 862.703125 876.988281 C 844.449219 867.34375 839.488281 854.679688 829.839844 836.585938 C 825.386719 829.351562 820.933594 822.113281 816.347656 814.660156 C 779.632812 748.578125 769.71875 677.84375 788.699219 603.640625 C 793.394531 589.855469 798.363281 576.160156 803.695312 562.609375 C 810.757812 546.175781 810.757812 546.175781 809.601562 526.238281 C 816.195312 519.34375 822.960938 512.613281 829.839844 506 C 831.753906 502.027344 833.667969 498.050781 835.636719 493.957031 C 861.632812 443.476562 906.753906 400.894531 946.640625 360.945312 C 950.035156 357.546875 953.433594 354.144531 956.929688 350.640625 C 1004.6875 303.601562 1004.6875 303.601562 1025.492188 303.601562 C 1025.492188 299.148438 1025.492188 294.695312 1025.492188 290.105469 C 1077.644531 260.980469 1130.566406 234.050781 1184.460938 208.304688 C 1195.179688 203.125 1195.179688 203.125 1206.113281 197.839844 C 1492.738281 60.445312 1803.207031 14.65625 2118.453125 20.238281 Z M 506 1754.132812 C 506 1758.585938 506 1763.039062 506 1767.625 C 502.105469 1768.042969 498.207031 1768.460938 494.191406 1768.890625 C 472.714844 1776.648438 464.804688 1789.597656 452.027344 1808.105469 C 439.882812 1844.535156 440.550781 1881.886719 452.871094 1918.160156 C 472.289062 1945.996094 493.410156 1965.828125 526.238281 1976.773438 C 564.128906 1980.8125 598.234375 1981.015625 630.550781 1959.117188 C 660.75 1931.984375 676.5625 1902.824219 678.882812 1862.078125 C 676.792969 1826.316406 665.648438 1800.347656 640.933594 1774.375 C 600.464844 1743.828125 554.382812 1738.007812 506 1754.132812 Z M 1128.539062 1785.546875 C 1099.152344 1818.414062 1090.824219 1843.246094 1091.535156 1887.195312 C 1094.597656 1920.261719 1108.792969 1938.632812 1131.753906 1961.59375 C 1167.34375 1986.230469 1199.605469 1994.308594 1241.941406 1987.105469 C 1273.367188 1978.398438 1293.957031 1961.308594 1310.960938 1934.183594 C 1325.972656 1904.292969 1333.066406 1878.726562 1325.085938 1845.292969 C 1313.332031 1811.089844 1300.238281 1785.539062 1268.742188 1766.546875 C 1219.769531 1746.527344 1168.316406 1747.390625 1128.539062 1785.546875 Z M 1128.539062 1785.546875 "/>
<path style=" stroke:none;fill-rule:nonzero;fill:rgb(0%,0%,0%);fill-opacity:1;" d="M 1261.625 1801.359375 C 1266.078125 1805.8125 1270.53125 1810.265625 1275.121094 1814.851562 C 1270.667969 1814.851562 1266.214844 1814.851562 1261.625 1814.851562 C 1261.625 1810.402344 1261.625 1805.949219 1261.625 1801.359375 Z M 1261.625 1801.359375 "/>
<path style=" stroke:none;fill-rule:nonzero;fill:rgb(0.392157%,0.392157%,0.392157%);fill-opacity:1;" d="M 323.839844 3096.71875 C 337.332031 3103.464844 337.332031 3103.464844 337.332031 3103.464844 Z M 323.839844 3096.71875 "/>
<path style=" stroke:none;fill-rule:nonzero;fill:rgb(0%,0%,0.392157%);fill-opacity:1;" d="M 3764.640625 3022.507812 C 3778.132812 3029.253906 3778.132812 3029.253906 3778.132812 3029.253906 Z M 3764.640625 3022.507812 "/>
<path style=" stroke:none;fill-rule:nonzero;fill:rgb(0.392157%,0.392157%,0.392157%);fill-opacity:1;" d="M 20.238281 2199.414062 C 33.734375 2206.160156 33.734375 2206.160156 33.734375 2206.160156 Z M 20.238281 2199.414062 "/>
<path style=" stroke:none;fill-rule:nonzero;fill:rgb(0.392157%,0.392157%,0.392157%);fill-opacity:1;" d="M 1902.558594 1902.558594 C 1916.054688 1909.308594 1916.054688 1909.308594 1916.054688 1909.308594 Z M 1902.558594 1902.558594 "/>
<path style=" stroke:none;fill-rule:nonzero;fill:rgb(0.392157%,0.392157%,0.392157%);fill-opacity:1;" d="M 2158.933594 1733.894531 C 2172.425781 1740.640625 2172.425781 1740.640625 2172.425781 1740.640625 Z M 2158.933594 1733.894531 "/>
<path style=" stroke:none;fill-rule:nonzero;fill:rgb(0%,0%,0%);fill-opacity:1;" d="M 3083.226562 1146.933594 C 3096.71875 1153.679688 3096.71875 1153.679688 3096.71875 1153.679688 Z M 3083.226562 1146.933594 "/>
<path style=" stroke:none;fill-rule:nonzero;fill:rgb(0.392157%,0.392157%,0.392157%);fill-opacity:1;" d="M 2874.078125 1140.1875 C 2887.574219 1146.933594 2887.574219 1146.933594 2887.574219 1146.933594 Z M 2874.078125 1140.1875 "/>
<path style=" stroke:none;fill-rule:nonzero;fill:rgb(0%,0%,0%);fill-opacity:1;" d="M 877.066406 904.054688 C 890.558594 910.800781 890.558594 910.800781 890.558594 910.800781 Z M 877.066406 904.054688 "/>
<path style=" stroke:none;fill-rule:nonzero;fill:rgb(0.392157%,0.392157%,0.392157%);fill-opacity:1;" d="M 1652.933594 742.132812 C 1666.425781 748.878906 1666.425781 748.878906 1666.425781 748.878906 Z M 1652.933594 742.132812 "/>
<path style=" stroke:none;fill-rule:nonzero;fill:rgb(0.392157%,0%,0%);fill-opacity:1;" d="M 3400.320312 553.226562 C 3413.8125 559.972656 3413.8125 559.972656 3413.8125 559.972656 Z M 3400.320312 553.226562 "/>
<path style=" stroke:none;fill-rule:nonzero;fill:rgb(0.392157%,0.392157%,0.392157%);fill-opacity:1;" d="M 1774.375 6.746094 C 1787.867188 13.492188 1787.867188 13.492188 1787.867188 13.492188 Z M 1774.375 6.746094 "/>
</g>
</svg>
