<?xml version="1.0" encoding="UTF-8"?>
<svg xmlns="http://www.w3.org/2000/svg" xmlns:xlink="http://www.w3.org/1999/xlink" width="4048px" height="4048px" viewBox="0 0 4048 4048" version="1.1">
<g id="surface1">
<path style=" stroke:none;fill-rule:nonzero;fill:rgb(0%,0%,0%);fill-opacity:1;" d="M 2447.773438 69.574219 C 2452.296875 70.382812 2456.820312 71.1875 2461.34375 71.988281 C 2624.820312 101.050781 2786.679688 148.171875 2934.683594 224.4375 C 2941.578125 227.929688 2948.53125 231.289062 2955.503906 234.628906 C 3057.648438 283.902344 3154.046875 348.59375 3241.5625 420.613281 C 3244.367188 422.871094 3247.171875 425.128906 3250.0625 427.457031 C 3269.957031 443.539062 3289.074219 460.300781 3307.976562 477.539062 C 3312.847656 481.886719 3317.726562 486.234375 3322.601562 490.582031 C 3337.054688 503.59375 3351.292969 516.828125 3365.492188 530.113281 C 3367.597656 532.078125 3369.699219 534.046875 3371.867188 536.070312 C 3391.828125 554.800781 3411.007812 573.789062 3428.898438 594.523438 C 3436.210938 602.851562 3443.855469 610.835938 3451.519531 618.839844 C 3471.894531 640.136719 3490.808594 661.972656 3508.695312 685.386719 C 3516.128906 695.109375 3523.96875 704.429688 3531.917969 713.738281 C 3598.523438 793.539062 3656.109375 883.246094 3706.449219 974.050781 C 3708.257812 977.277344 3710.0625 980.503906 3711.925781 983.828125 C 3860.828125 1250.679688 3956.394531 1570.1875 3959.980469 1903.503906 C 3959.992188 1908.210938 3960.003906 1912.914062 3960.011719 1917.621094 C 3960.03125 1927.429688 3960.039062 1937.234375 3960.035156 1947.042969 C 3960.035156 1956.914062 3960.058594 1966.789062 3960.101562 1976.660156 C 3960.355469 2035.980469 3959.304688 2094.589844 3953.125 2153.664062 C 3952.792969 2156.886719 3952.460938 2160.105469 3952.121094 2163.425781 C 3923.921875 2434.054688 3837.953125 2696.539062 3667.082031 3015.113281 C 3662.691406 3022.484375 3658.390625 3029.894531 3654.144531 3037.347656 C 3605.621094 3122.253906 3547.613281 3202.882812 3485.136719 3278.078125 C 3479.03125 3285.496094 3473.164062 3293.0625 3467.285156 3300.660156 C 3453.652344 3317.808594 3438.632812 3333.597656 3423.539062 3349.453125 C 3414.066406 3359.417969 3404.765625 3369.433594 3395.832031 3379.886719 C 3381.707031 3396.15625 3366.425781 3411.285156 3351.167969 3426.484375 C 3346.132812 3431.5 3341.113281 3436.535156 3336.097656 3441.570312 C 3320.535156 3457.144531 3304.855469 3472.425781 3288.109375 3486.738281 C 3279.953125 3493.730469 3272.15625 3501.074219 3264.292969 3508.398438 C 3246.753906 3524.5625 3228.652344 3539.863281 3209.9375 3554.648438 C 3207.839844 3556.308594 3205.742188 3557.96875 3203.582031 3559.679688 C 3151.523438 3600.796875 3097.800781 3638.460938 3042.324219 3674.824219 C 3039.859375 3676.449219 3037.394531 3678.070312 3034.851562 3679.742188 C 2993.320312 3706.960938 2950.210938 3731.183594 2906.609375 3754.894531 C 2898.390625 3759.375 2890.207031 3763.910156 2882.039062 3768.476562 C 2740.101562 3846.730469 2581.914062 3902.207031 2425.636719 3943.636719 C 2422.054688 3944.59375 2418.46875 3945.550781 2414.777344 3946.535156 C 2326.230469 3969.859375 2235.246094 3984.921875 2144.175781 3994.238281 C 2139.730469 3994.726562 2139.730469 3994.726562 2135.191406 3995.222656 C 2079.722656 4001.109375 2024.183594 4001.222656 1968.457031 4001.351562 C 1964.8125 4001.371094 1961.167969 4001.386719 1957.410156 4001.402344 C 1887.40625 4001.652344 1817.695312 3998.003906 1748.269531 3988.703125 C 1744.226562 3988.164062 1740.1875 3987.628906 1736.023438 3987.074219 C 1546.035156 3961.195312 1362.992188 3903.644531 1189.101562 3823.460938 C 1184.859375 3821.519531 1184.859375 3821.519531 1180.53125 3819.535156 C 1051.410156 3760.175781 927.523438 3686.320312 816.238281 3597.847656 C 809.191406 3592.277344 802.09375 3586.777344 794.984375 3581.285156 C 783.363281 3572.257812 771.976562 3563.011719 760.777344 3553.464844 C 759.023438 3551.972656 757.269531 3550.476562 755.460938 3548.941406 C 739.503906 3535.320312 723.847656 3521.40625 708.398438 3507.210938 C 706.714844 3505.671875 705.03125 3504.128906 703.292969 3502.539062 C 679.21875 3480.460938 655.640625 3457.925781 632.5 3434.871094 C 629.210938 3431.601562 629.210938 3431.601562 625.851562 3428.265625 C 613.453125 3415.832031 601.644531 3403.058594 590.175781 3389.761719 C 582.929688 3381.421875 575.398438 3373.378906 567.867188 3365.296875 C 552.742188 3348.90625 538.613281 3331.953125 524.976562 3314.300781 C 521.496094 3309.847656 521.496094 3309.847656 517.945312 3305.304688 C 449.367188 3216.992188 388.773438 3124.722656 335.226562 3026.511719 C 333.375 3023.125 331.523438 3019.734375 329.617188 3016.242188 C 214.496094 2803.699219 137.265625 2567.367188 107.523438 2327.601562 C 106.570312 2320.210938 105.613281 2312.824219 104.648438 2305.4375 C 99.429688 2262.125 97.542969 2218.914062 97.507812 2175.304688 C 97.496094 2170.878906 97.484375 2166.453125 97.472656 2162.03125 C 97.457031 2152.824219 97.449219 2143.617188 97.453125 2134.414062 C 97.453125 2125.152344 97.429688 2115.894531 97.386719 2106.636719 C 97.140625 2052.847656 98.027344 1999.648438 103.589844 1946.078125 C 104.613281 1936.195312 105.488281 1926.304688 106.386719 1916.414062 C 125.457031 1728.933594 168.667969 1527.910156 256.164062 1359.875 C 260.335938 1360.917969 264.511719 1361.960938 268.8125 1363.039062 C 266.972656 1388.355469 262.261719 1412.71875 257.152344 1437.554688 C 238.039062 1533.023438 224.972656 1629.601562 218.210938 1726.726562 C 217.988281 1729.886719 217.765625 1733.046875 217.535156 1736.304688 C 204.183594 1938.785156 220.480469 2143.898438 271.976562 2340.25 C 272.910156 2343.933594 273.847656 2347.617188 274.8125 2351.414062 C 302.136719 2458.804688 341.082031 2565.050781 392.34375 2663.390625 C 395.390625 2669.304688 398.339844 2675.257812 401.265625 2681.230469 C 470.082031 2821.703125 560.382812 2956.855469 666.398438 3072.28125 C 673.273438 3079.898438 679.917969 3087.664062 686.535156 3095.503906 C 703.40625 3115.46875 720.8125 3134.882812 738.640625 3154 C 740.828125 3156.367188 743.011719 3158.730469 745.261719 3161.167969 C 747.320312 3163.355469 749.378906 3165.542969 751.5 3167.800781 C 753.328125 3169.753906 755.160156 3171.707031 757.042969 3173.722656 C 762.316406 3179.0625 762.316406 3179.0625 771.648438 3181.476562 C 780.019531 3169.449219 782.269531 3161.648438 781.953125 3147.058594 C 781.90625 3143.414062 781.855469 3139.769531 781.808594 3136.011719 C 781.71875 3132.101562 781.625 3128.1875 781.53125 3124.15625 C 781.449219 3115.78125 781.371094 3107.410156 781.308594 3099.039062 C 781.289062 3096.917969 781.269531 3094.800781 781.25 3092.613281 C 779.476562 2886.183594 823.476562 2673.023438 910.800781 2485.726562 C 912.183594 2482.722656 913.566406 2479.722656 914.992188 2476.632812 C 952.929688 2394.679688 995.894531 2316.601562 1046.183594 2241.59375 C 1047.503906 2239.601562 1048.824219 2237.605469 1050.1875 2235.550781 C 1053.582031 2230.441406 1057.027344 2225.367188 1060.476562 2220.296875 C 1069.824219 2203.125 1074.191406 2189.722656 1069.035156 2170.390625 C 1062.109375 2150.460938 1051.886719 2132.226562 1041.847656 2113.734375 C 966.46875 1971.902344 925.929688 1815.746094 925.820312 1655.171875 C 925.820312 1652.304688 925.816406 1649.433594 925.816406 1646.480469 C 925.871094 1598.824219 928.152344 1552.433594 936.101562 1505.351562 C 936.644531 1502.113281 937.183594 1498.875 937.746094 1495.539062 C 954.484375 1398.972656 984.171875 1305.726562 1025.265625 1216.804688 C 1049.738281 1163.242188 1056.929688 1112.757812 1058.910156 1054.636719 C 1064.769531 887.230469 1095.296875 730.914062 1166.960938 578.738281 C 1167.988281 576.542969 1169.015625 574.347656 1170.070312 572.085938 C 1196.296875 516.386719 1229.148438 464.253906 1265 414.289062 C 1266.242188 412.542969 1267.484375 410.800781 1268.765625 409.003906 C 1311.960938 348.703125 1311.960938 348.703125 1333.746094 336.832031 C 1352.964844 333.839844 1369.042969 341.628906 1384.59375 352.605469 C 1388.574219 355.667969 1392.523438 358.769531 1396.441406 361.910156 C 1400.855469 365.335938 1405.269531 368.761719 1409.683594 372.1875 C 1411.910156 373.929688 1414.136719 375.675781 1416.429688 377.472656 C 1422.875 382.46875 1429.394531 387.332031 1435.972656 392.148438 C 1465.6875 413.929688 1493.695312 437.183594 1521.164062 461.726562 C 1523.488281 463.773438 1525.8125 465.820312 1528.207031 467.929688 C 1548.605469 486.035156 1568.109375 504.921875 1587.390625 524.203125 C 1592.503906 529.3125 1597.644531 534.394531 1602.789062 539.476562 C 1623.398438 559.980469 1642.207031 581.253906 1660.3125 604.039062 C 1663.230469 607.484375 1666.171875 610.914062 1669.144531 614.316406 C 1706.605469 657.335938 1739.105469 704.097656 1770.804688 751.457031 C 1788.566406 777.878906 1802.328125 795.21875 1831.085938 809.601562 C 1857.292969 811.640625 1882.773438 807.664062 1908.570312 803.472656 C 1953.296875 796.351562 1996.726562 793.03125 2041.988281 792.996094 C 2044.574219 792.996094 2047.160156 792.992188 2049.824219 792.992188 C 2093.476562 793.046875 2135.921875 795.535156 2178.960938 803.273438 C 2182.101562 803.835938 2185.238281 804.394531 2188.472656 804.96875 C 2255.539062 817.273438 2317.863281 836.714844 2380.507812 863.496094 C 2400.757812 872.660156 2400.757812 872.660156 2422.476562 872.851562 C 2442.4375 860.910156 2458.203125 843.636719 2474.335938 827.128906 C 2485.226562 816.484375 2496.914062 807.085938 2508.8125 797.59375 C 2516.902344 790.988281 2524.535156 784.101562 2532.175781 776.988281 C 2617.101562 700.140625 2722.738281 637.738281 2829.25 596.132812 C 2831.273438 595.324219 2833.296875 594.511719 2835.378906 593.679688 C 2852.59375 587.230469 2867.351562 585.628906 2884.792969 591.78125 C 2898.847656 601.152344 2905.066406 612.078125 2909.535156 628.273438 C 2910.296875 632.441406 2911.007812 636.617188 2911.675781 640.800781 C 2912.769531 646.929688 2912.769531 646.929688 2913.886719 653.179688 C 2918.460938 683.929688 2919.488281 714.75 2919.519531 745.792969 C 2919.527344 749.542969 2919.539062 753.292969 2919.550781 757.15625 C 2919.566406 765.042969 2919.574219 772.925781 2919.574219 780.8125 C 2919.582031 792.710938 2919.636719 804.613281 2919.699219 816.511719 C 2919.792969 856.894531 2918.996094 896.171875 2912.664062 936.101562 C 2912.136719 939.621094 2911.609375 943.140625 2911.066406 946.765625 C 2897.957031 1030.328125 2875.390625 1114.296875 2840.914062 1191.730469 C 2834.039062 1208.328125 2832.667969 1222.109375 2838.929688 1239.339844 C 2847.335938 1259.285156 2857.460938 1278.421875 2867.558594 1297.550781 C 2920.132812 1398.558594 2950.824219 1512.6875 2963.261719 1625.523438 C 2963.5625 1628.207031 2963.863281 1630.890625 2964.171875 1633.652344 C 2971.9375 1709.726562 2965.769531 1784.386719 2953.773438 1859.550781 C 2953.117188 1863.835938 2953.117188 1863.835938 2952.449219 1868.207031 C 2948.898438 1891.097656 2944.3125 1912.472656 2934.886719 1933.746094 C 2930.992188 1943.375 2928.390625 1953.085938 2925.707031 1963.121094 C 2920.226562 1983.070312 2912.890625 2001.269531 2904.335938 2020.035156 C 2899.855469 2030.699219 2896.820312 2041.339844 2893.6875 2052.460938 C 2891.390625 2058.1875 2888.957031 2063.859375 2886.375 2069.460938 C 2885.148438 2072.160156 2883.921875 2074.859375 2882.65625 2077.640625 C 2869.664062 2103.753906 2854.339844 2128.046875 2838.113281 2152.257812 C 2834.425781 2157.761719 2830.761719 2163.28125 2827.101562 2168.800781 C 2805.121094 2201.808594 2782.066406 2233.847656 2755.722656 2263.558594 C 2753.960938 2265.566406 2752.195312 2267.574219 2750.378906 2269.644531 C 2746.949219 2273.546875 2743.515625 2277.445312 2740.074219 2281.34375 C 2734.46875 2287.730469 2729 2294.230469 2723.503906 2300.71875 C 2714.890625 2310.507812 2705.667969 2319.101562 2695.710938 2327.511719 C 2689.917969 2332.410156 2684.226562 2337.367188 2678.5625 2342.410156 C 2582.9375 2426.972656 2470.585938 2480.738281 2351.566406 2524.09375 C 2348.5625 2525.195312 2345.554688 2526.296875 2342.460938 2527.429688 C 2339.8125 2528.386719 2337.167969 2529.347656 2334.441406 2530.332031 C 2326.871094 2533.203125 2326.871094 2533.203125 2318.113281 2539.488281 C 2323.027344 2552.644531 2332.65625 2559.671875 2343.238281 2568.222656 C 2370.574219 2591.003906 2395.574219 2615.996094 2420.65625 2641.207031 C 2428.4375 2649.019531 2436.25 2656.800781 2444.070312 2664.578125 C 2449.121094 2669.632812 2454.167969 2674.691406 2459.214844 2679.75 C 2461.503906 2682.027344 2463.792969 2684.304688 2466.152344 2686.648438 C 2482.414062 2703.058594 2496.859375 2720.492188 2511.023438 2738.726562 C 2513.898438 2742.320312 2516.773438 2745.910156 2519.660156 2749.496094 C 2555.265625 2794.332031 2588.402344 2840.273438 2617.464844 2889.640625 C 2621.738281 2896.894531 2626.058594 2904.117188 2630.382812 2911.339844 C 2668.554688 2975.601562 2699.078125 3042.25 2726.074219 3111.898438 C 2727.21875 3114.832031 2728.363281 3117.765625 2729.542969 3120.785156 C 2746.136719 3163.644531 2759.574219 3207.355469 2772.488281 3251.433594 C 2773.140625 3253.640625 2773.792969 3255.847656 2774.464844 3258.121094 C 2776.25 3264.171875 2778.015625 3270.226562 2779.78125 3276.285156 C 2782.675781 3286.242188 2782.675781 3286.242188 2789.324219 3295.324219 C 2803.589844 3293.597656 2812.273438 3288.15625 2823.914062 3279.90625 C 2825.683594 3278.65625 2827.453125 3277.40625 2829.273438 3276.117188 C 2848.507812 3262.355469 2867.046875 3247.710938 2885.496094 3232.925781 C 2890.015625 3229.320312 2894.566406 3225.753906 2899.125 3222.191406 C 2916.355469 3208.667969 2932.628906 3194.328125 2948.746094 3179.5 C 2955.683594 3173.140625 2962.683594 3166.894531 2969.785156 3160.722656 C 2971.816406 3158.949219 2973.84375 3157.175781 2975.9375 3155.347656 C 2980.261719 3151.574219 2984.59375 3147.8125 2988.933594 3144.054688 C 3007.046875 3128.109375 3024.242188 3111.339844 3041.335938 3094.308594 C 3043.589844 3092.070312 3045.84375 3089.828125 3048.167969 3087.523438 C 3060.925781 3074.726562 3073.125 3061.613281 3084.921875 3047.925781 C 3090.871094 3041.042969 3097.035156 3034.378906 3103.203125 3027.699219 C 3119.027344 3010.117188 3133.632812 2991.695312 3148.019531 2972.9375 C 3151.476562 2968.425781 3154.949219 2963.925781 3158.425781 2959.429688 C 3190.558594 2917.855469 3219.953125 2874.929688 3247.886719 2830.4375 C 3249.792969 2827.421875 3251.699219 2824.402344 3253.664062 2821.292969 C 3289.136719 2764.824219 3319.621094 2706.027344 3349.386719 2646.414062 C 3351.871094 2641.445312 3354.367188 2636.484375 3356.867188 2631.527344 C 3468.425781 2409.4375 3531.894531 2155.09375 3537.652344 1906.789062 C 3537.71875 1903.824219 3537.789062 1900.859375 3537.859375 1897.804688 C 3539.882812 1806.421875 3537.285156 1716.328125 3526.1875 1625.523438 C 3525.535156 1620.027344 3525.535156 1620.027344 3524.867188 1614.417969 C 3491.425781 1337.679688 3403.542969 1069.21875 3251.050781 834.898438 C 3249.726562 832.847656 3248.40625 830.800781 3247.042969 828.6875 C 3206.183594 765.414062 3160.546875 704.808594 3109.367188 649.511719 C 3103.175781 642.8125 3097.128906 636.023438 3091.144531 629.140625 C 3089.371094 627.109375 3087.597656 625.078125 3085.773438 622.988281 C 3082 618.664062 3078.234375 614.332031 3074.480469 609.992188 C 3058.53125 591.878906 3041.765625 574.679688 3024.734375 557.589844 C 3022.492188 555.335938 3020.253906 553.078125 3017.945312 550.757812 C 3005.183594 538.03125 2992.101562 525.867188 2978.449219 514.101562 C 2970.976562 507.625 2963.773438 500.882812 2956.542969 494.140625 C 2940.082031 479.132812 2922.878906 465.375 2905.261719 451.753906 C 2897.496094 445.75 2889.820312 439.648438 2882.210938 433.449219 C 2853.226562 409.832031 2823.320312 387.988281 2792.488281 366.851562 C 2788.835938 364.320312 2788.835938 364.320312 2785.109375 361.742188 C 2606.128906 238.078125 2404.351562 152.386719 2191.613281 107.523438 C 2186.167969 106.363281 2186.167969 106.363281 2180.609375 105.179688 C 2145.003906 97.640625 2109.511719 90.601562 2073.328125 86.523438 C 2065.113281 85.386719 2065.113281 85.386719 2058.789062 82.226562 C 2059.777344 76.097656 2059.777344 76.097656 2061.949219 69.574219 C 2172.445312 32.742188 2335.382812 48.472656 2447.773438 69.574219 Z M 2447.773438 69.574219 "/>
</g>
</svg>
